<svg width="28" height="28" viewBox="0 0 28 28" fill="none" xmlns="http://www.w3.org/2000/svg">
<path d="M25.3286 11.8751H16.1249V2.67126C16.1249 1.19599 14.9289 0 13.4536 0H2.64705C1.17843 0.00671615 -0.00668775 1.20265 2.84053e-05 2.67121V13.4656C2.84053e-05 14.9275 1.18515 16.1127 2.64705 16.1127H11.8751V25.3407C11.8751 26.8026 13.0602 27.9877 14.5221 27.9877H25.3165C26.7851 27.9944 27.9811 26.8094 27.9878 25.3408V14.5463C27.9878 13.0758 26.7992 11.8817 25.3286 11.8751ZM11.8751 14.5584V14.9106L2.64705 14.8985C1.85574 14.8985 1.21429 14.257 1.21429 13.4657V2.67126C1.20757 1.87329 1.84896 1.22092 2.64699 1.2142C2.64705 1.2142 2.64705 1.2142 2.6471 1.2142H13.4415C14.2462 1.2142 14.8986 1.86658 14.8986 2.67126V11.8872H14.5222C13.0535 11.8939 11.8684 13.0898 11.8751 14.5584ZM26.7857 25.3408C26.779 26.1387 26.1267 26.7802 25.3288 26.7735C25.3287 26.7735 25.3287 26.7735 25.3286 26.7735H14.5342C13.7429 26.7735 13.1015 26.1321 13.1015 25.3408V14.5463C13.0948 13.7484 13.7362 13.096 14.5342 13.0893C14.5342 13.0893 14.5342 13.0893 14.5343 13.0893H25.3286C26.1333 13.0893 26.7857 13.7416 26.7857 14.5463V25.3408Z" fill="white"/>
<path d="M23.5201 23.7257L20.5088 15.724C20.3597 15.4087 19.9832 15.2742 19.668 15.4234C19.5361 15.4859 19.4299 15.5921 19.3675 15.724L16.4291 23.7136C16.3117 24.0288 16.4721 24.3794 16.7872 24.4967C17.1024 24.6141 17.4531 24.4537 17.5704 24.1385L18.2868 22.2201H21.6624L22.3788 24.1385C22.4657 24.3789 22.6939 24.5391 22.9495 24.5392C23.2848 24.5391 23.5565 24.2672 23.5563 23.9319C23.5563 23.8615 23.544 23.7918 23.5201 23.7257ZM18.6996 21.018L19.9138 17.6789L21.128 21.018H18.6996Z" fill="white"/>
<path d="M11.9116 11.9237C10.8887 11.9218 9.88714 11.6314 9.02178 11.0859C10.092 9.98876 10.7522 8.5568 10.8917 7.03047H11.9116C12.2469 7.03047 12.5187 6.75863 12.5187 6.42334C12.5187 6.08804 12.2469 5.81621 11.9116 5.81621H8.66963V3.59419C8.66963 3.25889 8.3978 2.98706 8.0625 2.98706C7.72721 2.98706 7.45537 3.25889 7.45537 3.59419V5.81621H4.18916C3.85386 5.81621 3.58203 6.08804 3.58203 6.42334C3.58203 6.75863 3.85386 7.03047 4.18916 7.03047H5.22123C5.36164 8.55657 6.02176 9.98819 7.09111 11.0859C6.22495 11.6295 5.2239 11.9198 4.20128 11.9237C3.86599 11.9237 3.59415 12.1956 3.59415 12.5309C3.59415 12.8662 3.86599 13.138 4.20128 13.138C5.58271 13.1409 6.93134 12.7168 8.0625 11.9238C9.18922 12.7165 10.5339 13.1407 11.9116 13.138C12.2469 13.138 12.5187 12.8662 12.5187 12.5309C12.5187 12.1956 12.2469 11.9237 11.9116 11.9237ZM6.47191 7.03047H9.65315C9.52452 8.29026 8.96224 9.46626 8.0625 10.3574C7.16362 9.4657 6.60151 8.28997 6.47191 7.03047Z" fill="white"/>
<path d="M27.9638 9.15519C27.9572 4.12058 23.8916 0.0333531 18.8571 0C18.5218 0 18.25 0.271833 18.25 0.607128C18.25 0.942423 18.5218 1.21426 18.8571 1.21426C23.0861 1.22211 26.5669 4.54285 26.7738 8.76668H24.7704C24.4351 8.76668 24.1632 9.03851 24.1632 9.37381C24.1632 9.7091 24.4351 9.98093 24.7704 9.98093H27.3567C27.6919 9.98093 27.9638 9.7091 27.9638 9.37381C27.9672 9.33744 27.9672 9.3009 27.9638 9.26453C27.9672 9.22816 27.9672 9.19156 27.9638 9.15519Z" fill="white"/>
<path d="M9.14292 26.7857C4.91846 26.7782 1.43938 23.4646 1.22623 19.2455H3.21751C3.55281 19.2455 3.82464 18.9736 3.82464 18.6383C3.82464 18.303 3.55281 18.0312 3.21751 18.0312H0.6434C0.308105 18.0312 0.0362714 18.3031 0.0362714 18.6384C0.0334825 18.6707 0.0334825 18.7032 0.0362714 18.7355C0.0334825 18.7679 0.0334825 18.8004 0.0362714 18.8327C0.0361575 23.8721 4.10364 27.9667 9.14292 28.0001C9.47822 28.0001 9.75005 27.7282 9.75005 27.3929C9.75005 27.0576 9.47822 26.7857 9.14292 26.7857Z" fill="white"/>
</svg>
