<svg width="28" height="28" viewBox="0 0 28 28" fill="none" xmlns="http://www.w3.org/2000/svg">
<path d="M25.6392 12.8773C25.1558 12.8773 24.7642 13.2689 24.7642 13.7523V17.7125L19.3019 12.617C18.9663 12.3039 18.4451 12.3034 18.109 12.6163L3.69932 26.0299C2.55902 25.5756 1.75 24.4628 1.75 23.1627V6.32296C1.75 4.62055 3.13494 3.2356 4.83734 3.2356H14.2476C14.7309 3.2356 15.1226 2.84395 15.1226 2.3606C15.1226 1.87725 14.7309 1.4856 14.2476 1.4856H4.83734C2.17017 1.4856 0 3.6556 0 6.32296V23.1627C0 25.2353 1.31057 27.0071 3.14632 27.6944C3.38204 27.9805 3.77614 28.0689 4.10952 27.9451C4.34699 27.9812 4.59007 27.9999 4.83734 27.9999H21.677C24.3442 27.9999 26.5144 25.8299 26.5144 23.1626V13.7523C26.5144 13.2689 26.1227 12.8773 25.6394 12.8773H25.6392ZM21.6769 26.2499H6.03136L18.7045 14.453L24.7642 20.1056V23.1626C24.7642 24.865 23.3793 26.2499 21.6769 26.2499Z" fill="white"/>
<path d="M27.1251 4.45761H23.5425V0.875002C23.5425 0.391651 23.1509 0 22.6676 0C22.1842 0 21.7926 0.391651 21.7926 0.875002V4.45761H18.21C17.7266 4.45761 17.335 4.84926 17.335 5.33261C17.335 5.81597 17.7266 6.20762 18.21 6.20762H21.7926V9.79023C21.7926 10.2736 22.1842 10.6652 22.6676 10.6652C23.1509 10.6652 23.5425 10.2736 23.5425 9.79023V6.20762H27.1251C28.2815 6.17209 28.2815 4.49314 27.1251 4.45761Z" fill="white"/>
<path d="M4.95215 9.78984C4.95215 11.638 6.45557 13.1413 8.30357 13.1413C12.7496 12.9572 12.7482 6.62163 8.30357 6.43823C6.45557 6.43823 4.95215 7.94184 4.95215 9.78984ZM9.90499 9.78984C9.90499 10.6729 9.18679 11.3913 8.30374 11.3913C6.17925 11.3032 6.17977 8.27591 8.30374 8.18824C9.18679 8.18824 9.90499 8.90679 9.90499 9.78984Z" fill="white"/>
</svg>
