<svg width="29" height="28" viewBox="0 0 29 28" fill="none" xmlns="http://www.w3.org/2000/svg">
<path d="M17.9071 28H10.0931C3.02141 28 0 24.9786 0 17.907V10.093C0 3.0214 3.02141 0 10.0931 0H17.9071C24.9787 0 28.0002 3.0214 28.0002 10.093V17.907C28.0002 24.9786 24.9787 28 17.9071 28ZM10.0931 1.95349C4.08932 1.95349 1.9535 4.0893 1.9535 10.093V17.907C1.9535 23.9107 4.08932 26.0465 10.0931 26.0465H17.9071C23.9108 26.0465 26.0467 23.9107 26.0467 17.907V10.093C26.0467 4.0893 23.9108 1.95349 17.9071 1.95349H10.0931Z" fill="white"/>
<path d="M10.0931 12.372C8.11359 12.372 6.51172 10.7702 6.51172 8.79062C6.51172 6.81109 8.11359 5.20923 10.0931 5.20923C12.0727 5.20923 13.6745 6.81109 13.6745 8.79062C13.6745 10.7702 12.0727 12.372 10.0931 12.372ZM10.0931 7.16272C9.19452 7.16272 8.46522 7.89202 8.46522 8.79062C8.46522 9.68923 9.19452 10.4185 10.0931 10.4185C10.9917 10.4185 11.721 9.68923 11.721 8.79062C11.721 7.89202 10.9917 7.16272 10.0931 7.16272Z" fill="white"/>
<path d="M1.84896 24.0282C1.5364 24.0282 1.22384 23.8719 1.04151 23.5984C0.741977 23.1556 0.859186 22.5435 1.315 22.244L7.7355 17.9333C9.14202 16.9826 11.0825 17.0998 12.3588 18.1807L12.7886 18.5584C13.4398 19.1184 14.5467 19.1184 15.1849 18.5584L20.6026 13.9091C21.9831 12.724 24.158 12.724 25.5515 13.9091L27.6743 15.7324C28.078 16.084 28.1301 16.6961 27.7784 17.1128C27.4268 17.5165 26.8147 17.5686 26.398 17.217L24.2752 15.3938C23.624 14.8338 22.517 14.8338 21.8659 15.3938L16.4481 20.0431C15.0677 21.2282 12.8928 21.2282 11.4993 20.0431L11.0695 19.6654C10.4704 19.1575 9.48063 19.1054 8.81644 19.5612L2.39594 23.8719C2.22664 23.9761 2.03129 24.0282 1.84896 24.0282Z" fill="white"/>
</svg>
