<svg width="39" height="28" viewBox="0 0 39 28" fill="none" xmlns="http://www.w3.org/2000/svg">
<path d="M31.2217 0H0.688819C0.308591 0 0 0.308593 0 0.688824V14.602V20.901C0 21.2812 0.308591 21.5898 0.688819 21.5898H24.2061H31.2217C31.602 21.5898 31.9106 21.2812 31.9106 20.901V16.6014V0.688824C31.9106 0.308249 31.6023 0 31.2217 0ZM1.37764 1.37765H30.5329V14.9385L24.1514 8.55658C24.0167 8.42191 23.8407 8.35475 23.6644 8.35475C23.488 8.35475 23.312 8.42191 23.1774 8.55658L18.0064 13.7276L9.78501 5.50577C9.52671 5.24747 9.06933 5.24747 8.81102 5.50577L1.37764 12.9392V1.37765ZM1.37764 14.8872L9.29802 6.96677L17.5194 15.1886L22.5433 20.2122H1.37764V14.8872ZM24.4913 20.2122L18.9804 14.7016L23.6644 10.0176L30.5329 16.8862V20.2118L24.4913 20.2122Z" fill="white"/>
<path d="M18.2123 8.6168C19.6588 8.6168 20.836 7.4396 20.836 5.99273C20.836 4.54585 19.6588 3.36865 18.2123 3.36865C16.7651 3.36865 15.5879 4.54585 15.5879 5.99273C15.5879 7.4396 16.7651 8.6168 18.2123 8.6168ZM18.2123 4.7463C18.8994 4.7463 19.4584 5.30563 19.4584 5.99273C19.4584 6.67983 18.8994 7.23916 18.2123 7.23916C17.5248 7.23916 16.9655 6.67983 16.9655 5.99273C16.9655 5.30563 17.5248 4.7463 18.2123 4.7463Z" fill="white"/>
<path d="M29.8032 23.0118C29.5342 22.7428 29.0982 22.7428 28.8292 23.0118C28.5602 23.2804 28.5602 23.7168 28.8292 23.9858L29.5594 24.7163H4.2029L4.93374 23.9858C5.20272 23.7172 5.20272 23.2808 4.93374 23.0118C4.66475 22.7428 4.22873 22.7428 3.95975 23.0118L2.05241 24.9188C1.92326 25.048 1.85059 25.2233 1.85059 25.4058C1.85059 25.5887 1.92326 25.764 2.05275 25.8931L3.96009 27.7984C4.09441 27.9328 4.27041 27.9999 4.44674 27.9999C4.62308 27.9999 4.79942 27.9328 4.93408 27.7977C5.20272 27.5288 5.20272 27.0924 4.93339 26.8238L4.2029 26.0939H29.5597L28.8292 26.8238C28.5602 27.0927 28.5602 27.5291 28.8289 27.7981C28.9635 27.9328 29.1399 27.9999 29.3162 27.9999C29.4925 27.9999 29.6685 27.9328 29.8032 27.7984L31.7095 25.8931C31.8387 25.764 31.9113 25.5887 31.9113 25.4058C31.9113 25.2233 31.8387 25.048 31.7095 24.9188L29.8032 23.0118Z" fill="white"/>
<path d="M37.3125 18.5077L36.5824 19.2375V2.89723L37.3122 3.62773C37.5812 3.89672 38.0175 3.89637 38.2865 3.62808C38.5555 3.35909 38.5555 2.92272 38.2869 2.65373L36.3802 0.745691C36.1212 0.487382 35.6638 0.487382 35.4055 0.746035L33.5003 2.65408C33.2316 2.92306 33.232 3.35943 33.501 3.62808C33.6356 3.7624 33.8113 3.82956 33.9876 3.82956C34.1643 3.82956 34.3403 3.7624 34.4749 3.62739L35.2047 2.89654V19.2379L34.4749 18.5077C34.206 18.2387 33.7696 18.2391 33.5006 18.5074C33.2316 18.7764 33.2316 19.2127 33.5003 19.4817L35.4055 21.388C35.5347 21.5172 35.71 21.5899 35.8929 21.5899C36.0754 21.5899 36.2507 21.5172 36.3799 21.388L38.2865 19.4817C38.5555 19.2131 38.5555 18.7767 38.2865 18.5077C38.0175 18.2387 37.5815 18.2387 37.3125 18.5077Z" fill="white"/>
</svg>
