<svg width="35" height="28" viewBox="0 0 35 28" fill="none" xmlns="http://www.w3.org/2000/svg">
<path d="M34.6807 13.2164L28.9307 7.4025C28.6149 7.08672 28.1466 6.99413 27.7378 7.16618C27.3276 7.33893 27.0623 7.74039 27.0623 8.18953V10.0441H23.9224C23.8643 9.8928 23.8028 9.74286 23.7385 9.59568L24.699 8.62484C25.6411 7.67267 25.6411 6.1228 24.699 5.16993L22.5845 3.03065C21.6425 2.07848 20.1091 2.07848 19.1664 3.03065L18.2059 4.00355C18.0596 3.9386 17.9112 3.87641 17.7608 3.81699V2.44262C17.7608 1.0959 16.6766 0 15.3442 0H12.3539C11.0215 0 9.9373 1.0959 9.9373 2.44262V3.81837C9.7869 3.8771 9.63855 3.93929 9.49226 4.00494L8.53107 3.03134C8.07577 2.57115 7.4687 2.31756 6.82198 2.31756C6.17526 2.31756 5.56888 2.57115 5.1129 3.03203L2.9991 5.17062C2.05705 6.1228 2.05705 7.67267 2.9991 8.62554L3.95961 9.59637C3.89466 9.74424 3.83382 9.89418 3.77571 10.0448H2.41665C1.08424 10.0448 0 11.1407 0 12.4874V15.5119C0 16.8586 1.08424 17.9545 2.41665 17.9545H3.77571C3.83382 18.1065 3.89535 18.2565 3.95961 18.4036L2.99979 19.3752C2.54449 19.8347 2.29291 20.4469 2.29291 21.0998C2.29222 21.7535 2.54312 22.3678 2.9991 22.8287L5.11358 24.968C6.05563 25.9201 7.58902 25.9201 8.53175 24.968L9.49226 23.9951C9.63855 24.06 9.7869 24.1222 9.9373 24.1816V25.5574C9.9373 26.9041 11.0215 28 12.3539 28H15.3442C16.6766 28 17.7608 26.9041 17.7608 25.5574V24.1816C17.9112 24.1229 18.0596 24.0607 18.2059 23.9951L19.167 24.968C20.1091 25.9201 21.6425 25.9201 22.5852 24.968L24.699 22.8294C25.155 22.3685 25.4059 21.7542 25.4052 21.1005C25.4045 20.4476 25.1536 19.8353 24.699 19.3765L23.7371 18.4029C23.8028 18.253 23.8636 18.1037 23.921 17.9552H27.0616V19.8098C27.0616 20.2582 27.3269 20.6604 27.7371 20.8331C27.8731 20.8905 28.016 20.9181 28.1575 20.9181C28.4412 20.9181 28.7201 20.8062 28.9328 20.594L34.6801 14.7829C34.8865 14.5742 35 14.2964 35 14.0007C35 13.7049 34.8872 13.4251 34.6807 13.2164ZM22.6953 18.9094L23.9265 20.156C24.1753 20.4068 24.3121 20.7412 24.3128 21.0992C24.3128 21.4578 24.176 21.7943 23.9265 22.0465L21.8127 24.1851C21.2966 24.7068 20.4564 24.7068 19.9409 24.1851L18.7104 22.9392C18.5456 22.7727 18.294 22.7299 18.0848 22.8328C17.7492 22.998 17.3964 23.1458 17.0362 23.2716C16.816 23.349 16.669 23.5584 16.669 23.7933V25.5539C16.669 26.2919 16.075 26.8917 15.3455 26.8917H12.3553C11.6252 26.8917 11.0318 26.2912 11.0318 25.5539V23.7933C11.0318 23.5584 10.8841 23.3483 10.6647 23.2716C10.3044 23.1452 9.95166 22.998 9.61599 22.8328C9.40612 22.7299 9.15522 22.7727 8.99047 22.9392L7.75993 24.1844C7.24378 24.7061 6.4036 24.7061 5.88745 24.1844L3.77298 22.0451C3.52345 21.7929 3.38604 21.4564 3.38672 21.0985C3.38672 20.7412 3.52413 20.4061 3.77366 20.1546L5.0042 18.9087C5.16896 18.7415 5.21066 18.4879 5.10811 18.2758C4.94541 17.94 4.79979 17.5841 4.674 17.2193C4.59744 16.9968 4.3903 16.8482 4.15786 16.8482H2.41665C1.68652 16.8482 1.09313 16.2478 1.09313 15.5105V12.4861C1.09313 11.7481 1.68721 11.1483 2.41665 11.1483H4.15718C4.38961 11.1483 4.59744 10.9991 4.67332 10.7773C4.79637 10.4179 4.94267 10.0621 5.10743 9.71936C5.20929 9.50792 5.1669 9.25364 5.00215 9.08711L3.77161 7.84334C3.25546 7.32165 3.25546 6.47243 3.77161 5.95074L5.8854 3.81215C6.40155 3.29046 7.24173 3.29046 7.75719 3.81215L8.98773 5.05799C9.15249 5.22452 9.40338 5.26736 9.61326 5.1644C9.94892 4.99926 10.3017 4.85139 10.662 4.72563C10.8821 4.64824 11.0291 4.43887 11.0291 4.20394V2.44262C11.0291 1.70465 11.6231 1.10488 12.3526 1.10488H15.3428C16.0729 1.10488 16.6663 1.70535 16.6663 2.44262V4.20325C16.6663 4.43818 16.814 4.64824 17.0334 4.72494C17.3937 4.85139 17.7465 4.99857 18.0821 5.16371C18.292 5.26667 18.5429 5.22383 18.7076 5.0573L19.9382 3.81215C20.4543 3.29046 21.2945 3.29046 21.8107 3.81215L23.9251 5.95143C24.4413 6.47312 24.4413 7.32234 23.9251 7.84403L22.6946 9.0878C22.5292 9.25433 22.4875 9.5093 22.59 9.72074C22.6413 9.82646 22.6898 9.93495 22.7377 10.0441H18.5996C17.4251 8.59928 15.7085 7.77563 13.847 7.77563C11.8542 7.77563 10.0802 8.73817 8.95424 10.2279C8.93373 10.2514 8.91459 10.2763 8.89818 10.3032C8.14071 11.3376 7.69225 12.616 7.69225 13.9986C7.69225 15.3813 8.14071 16.6596 8.89818 17.694C8.91459 17.7209 8.93373 17.7458 8.95424 17.7693C10.0795 19.2591 11.8542 20.2216 13.847 20.2216C15.7085 20.2216 17.4251 19.398 18.5996 17.9531H22.737C22.6898 18.0616 22.6406 18.1708 22.5886 18.2799C22.4888 18.4914 22.5312 18.7436 22.6953 18.9094ZM17.0656 10.0441H10.6387C11.5131 9.31721 12.6308 8.88051 13.8484 8.88051C15.0454 8.88051 16.17 9.2951 17.0656 10.0441ZM10.6387 17.9531H17.0662C16.1707 18.7021 15.0461 19.1167 13.8484 19.1167C12.6308 19.1167 11.5124 18.68 10.6387 17.9531ZM28.1623 19.8091C28.1582 19.8125 28.1561 19.8139 28.1623 19.8132L28.083 20.3598L28.1555 19.8084V17.401C28.1555 17.0963 27.9107 16.8489 27.6092 16.8489H9.64607C9.10395 16.0336 8.78675 15.0531 8.78675 13.9993C8.78675 12.9449 9.10395 11.9644 9.64607 11.1497H27.6092C27.9114 11.1497 28.1555 10.9023 28.1555 10.5976L28.1527 8.19022L28.1568 8.18469C28.1568 8.18469 28.1589 8.18607 28.1602 8.18745L33.9076 14L28.1623 19.8091Z" fill="white"/>
</svg>
