<svg width="28" height="28" viewBox="0 0 28 28" fill="none" xmlns="http://www.w3.org/2000/svg">
<path d="M27.2998 11.5033L24.875 10.1033C24.5536 9.91756 24.1715 9.86715 23.8129 9.96311C23.4543 10.0591 23.1484 10.2935 22.9626 10.615L15.9032 22.8434C15.6497 23.2827 15.5203 23.7825 15.5287 24.2896L15.5672 26.6227C15.5711 26.8646 15.6376 27.1013 15.7602 27.3098C15.8828 27.5183 16.0574 27.6915 16.2668 27.8124C16.4763 27.9334 16.7135 27.9981 16.9553 28.0001C17.1972 28.0021 17.4355 27.9414 17.6469 27.8239L19.6874 26.6906C20.1315 26.4441 20.4998 26.0811 20.7528 25.6406L27.8122 13.415C27.9976 13.0935 28.0478 12.7115 27.9517 12.3531C27.8556 11.9946 27.6212 11.6889 27.2998 11.5033ZM19.5404 24.9434C19.4136 25.1629 19.2294 25.3436 19.0077 25.4663L16.9672 26.6003L16.9287 24.2679C16.9247 24.014 16.9892 23.7637 17.1156 23.5434L24.175 11.3164L26.5998 12.7164L19.5404 24.9434Z" fill="white"/>
<path d="M25.8998 20.2302C25.7142 20.2302 25.5361 20.304 25.4049 20.4353C25.2736 20.5665 25.1998 20.7446 25.1998 20.9302V23.1003C25.1974 23.3813 25.1391 23.659 25.0283 23.9173C24.9176 24.1755 24.7565 24.4092 24.5546 24.6046C24.3526 24.8001 24.1138 24.9534 23.8521 25.0556C23.5903 25.1579 23.3108 25.2071 23.0299 25.2003C22.9398 25.201 22.8508 25.2199 22.7681 25.2558C22.6855 25.2917 22.6109 25.3439 22.5489 25.4092C22.4868 25.4745 22.4385 25.5517 22.4069 25.636C22.3753 25.7204 22.361 25.8103 22.3649 25.9003C22.3728 26.0894 22.4539 26.2681 22.591 26.3987C22.7281 26.5293 22.9105 26.6015 23.0999 26.6003C24.0278 26.5992 24.9174 26.2301 25.5735 25.5739C26.2296 24.9178 26.5987 24.0282 26.5998 23.1003V20.9302C26.5998 20.7446 26.5261 20.5665 26.3948 20.4353C26.2635 20.304 26.0855 20.2302 25.8998 20.2302Z" fill="white"/>
<path d="M13.4539 25.2003H3.49997C2.94302 25.2003 2.40888 24.979 2.01506 24.5852C1.62124 24.1913 1.39999 23.6572 1.39999 23.1002V19.89L4.81386 16.4761C5.20841 16.0827 5.74282 15.8618 6.29995 15.8618C6.85708 15.8618 7.39148 16.0827 7.78604 16.4761L9.01803 17.7081C9.4116 18.1001 9.94444 18.3201 10.4999 18.3201C11.0554 18.3201 11.5882 18.1001 11.9818 17.7081L16.0138 13.676C16.3741 13.3172 16.8525 13.1013 17.3599 13.0685C17.8674 13.0357 18.3696 13.1881 18.7731 13.4975C18.8454 13.5581 18.9292 13.6034 19.0194 13.6308C19.1096 13.6582 19.2044 13.6671 19.2982 13.6569C19.3919 13.6468 19.4826 13.6178 19.5649 13.5717C19.6472 13.5256 19.7192 13.4633 19.7769 13.3887C19.8345 13.314 19.8764 13.2285 19.9001 13.1373C19.9239 13.046 19.929 12.9509 19.915 12.8577C19.9011 12.7644 19.8685 12.6749 19.8192 12.5946C19.7698 12.5142 19.7047 12.4447 19.6278 12.3901C18.9548 11.8731 18.1169 11.6182 17.27 11.673C16.423 11.7277 15.6249 12.0883 15.024 12.6876L10.992 16.7197C10.861 16.8492 10.6842 16.9218 10.4999 16.9218C10.3157 16.9218 10.1389 16.8492 10.0078 16.7197L8.77583 15.4877C8.11865 14.832 7.22825 14.4638 6.29995 14.4638C5.37165 14.4638 4.48125 14.832 3.82407 15.4877L1.39999 17.9104V3.50004C1.39999 2.94308 1.62124 2.40893 2.01506 2.0151C2.40888 1.62127 2.94302 1.40001 3.49997 1.40001H23.0998C23.6568 1.40001 24.1909 1.62127 24.5847 2.0151C24.9785 2.40893 25.1998 2.94308 25.1998 3.50004V8.27409C25.1998 8.45974 25.2735 8.63779 25.4048 8.76907C25.5361 8.90034 25.7141 8.97409 25.8998 8.97409C26.0854 8.97409 26.2635 8.90034 26.3948 8.76907C26.526 8.63779 26.5998 8.45974 26.5998 8.27409V3.50004C26.5987 2.57211 26.2296 1.68251 25.5734 1.02636C24.9173 0.370221 24.0277 0.00111151 23.0998 0H3.49997C2.57206 0.00111151 1.68248 0.370221 1.02635 1.02636C0.370214 1.68251 0.00111149 2.57211 0 3.50004V23.1002C0.00111149 24.0282 0.370214 24.9178 1.02635 25.5739C1.68248 26.2301 2.57206 26.5992 3.49997 26.6003H13.4539C13.6395 26.6003 13.8176 26.5265 13.9489 26.3952C14.0801 26.264 14.1539 26.0859 14.1539 25.9003C14.1539 25.7146 14.0801 25.5366 13.9489 25.4053C13.8176 25.274 13.6395 25.2003 13.4539 25.2003Z" fill="white"/>
<path d="M5.59961 7.70023C5.59961 8.39247 5.80488 9.06917 6.18946 9.64475C6.57404 10.2203 7.12066 10.6689 7.7602 10.9338C8.39974 11.1988 9.10346 11.2681 9.78239 11.133C10.4613 10.998 11.085 10.6646 11.5744 10.1751C12.0639 9.68564 12.3973 9.062 12.5323 8.38305C12.6673 7.70411 12.598 7.00037 12.3331 6.36083C12.0682 5.72128 11.6196 5.17465 11.0441 4.79006C10.4685 4.40547 9.79181 4.2002 9.09958 4.2002C8.17167 4.20131 7.28209 4.57042 6.62595 5.22656C5.96982 5.8827 5.60072 6.77231 5.59961 7.70023ZM11.1996 7.70023C11.1996 8.11558 11.0764 8.52159 10.8457 8.86694C10.6149 9.21229 10.2869 9.48145 9.90321 9.6404C9.51949 9.79934 9.09725 9.84093 8.68989 9.7599C8.28254 9.67887 7.90836 9.47886 7.61467 9.18517C7.32098 8.89148 7.12098 8.51729 7.03995 8.10993C6.95892 7.70256 7.00051 7.28032 7.15945 6.89659C7.31839 6.51286 7.58755 6.18488 7.93289 5.95413C8.27823 5.72337 8.68424 5.60021 9.09958 5.60021C9.65653 5.60021 10.1907 5.82146 10.5845 6.21529C10.9783 6.60912 11.1996 7.14327 11.1996 7.70023Z" fill="white"/>
</svg>
