<svg width="28" height="28" viewBox="0 0 28 28" fill="none" xmlns="http://www.w3.org/2000/svg">
<path d="M1.448 4.82764H2.41352V23.1725H1.448V4.82764Z" fill="white"/>
<path d="M27.0342 24.1379H25.1032C24.57 24.1379 24.1377 24.5702 24.1377 25.1035V27.0345C24.1377 27.5677 24.57 28 25.1032 28H27.0342C27.5675 28 27.9998 27.5677 27.9998 27.0345V25.1035C27.9998 24.5702 27.5675 24.1379 27.0342 24.1379Z" fill="white"/>
<path d="M25.5857 4.82764H26.5512V23.1725H25.5857V4.82764Z" fill="white"/>
<path d="M4.82739 1.44824H23.1722V2.41376H4.82739V1.44824Z" fill="white"/>
<path d="M2.89655 0H0.965518C0.432277 0 0 0.432277 0 0.965517V2.89655C0 3.42979 0.432277 3.86207 0.965518 3.86207H2.89655C3.42979 3.86207 3.86207 3.42979 3.86207 2.89655V0.965517C3.86207 0.432277 3.42979 0 2.89655 0Z" fill="white"/>
<path d="M27.0342 0H25.1032C24.57 0 24.1377 0.432277 24.1377 0.965517V2.89655C24.1377 3.42979 24.57 3.86207 25.1032 3.86207H27.0342C27.5675 3.86207 27.9998 3.42979 27.9998 2.89655V0.965517C27.9998 0.432277 27.5675 0 27.0342 0Z" fill="white"/>
<path d="M2.89655 24.1379H0.965518C0.432277 24.1379 0 24.5702 0 25.1035V27.0345C0 27.5677 0.432277 28 0.965518 28H2.89655C3.42979 28 3.86207 27.5677 3.86207 27.0345V25.1035C3.86207 24.5702 3.42979 24.1379 2.89655 24.1379Z" fill="white"/>
<path d="M4.82739 25.5864H23.1722V26.5519H4.82739V25.5864Z" fill="white"/>
<path d="M15.9313 7.72419H19.7934C19.7931 7.9211 19.833 8.116 19.9106 8.29698C19.9882 8.47796 20.1019 8.64121 20.2447 8.77676C20.3875 8.91232 20.5565 9.01732 20.7413 9.08536C20.9261 9.15339 21.1228 9.18303 21.3194 9.17246C21.6993 9.13876 22.0521 8.96201 22.3066 8.67798C22.561 8.39395 22.6981 8.02385 22.69 7.6426V6.27591C22.69 5.89181 22.5374 5.52343 22.2658 5.25183C21.9942 4.98022 21.6258 4.82764 21.2417 4.82764H6.75892C6.37481 4.82764 6.00644 4.98022 5.73483 5.25183C5.46323 5.52343 5.31064 5.89181 5.31064 6.27591V7.6426C5.30254 8.02385 5.43958 8.39395 5.69404 8.67798C5.94849 8.96201 6.30135 9.13876 6.68119 9.17246C6.87782 9.18303 7.07454 9.15339 7.25932 9.08536C7.44411 9.01732 7.61308 8.91232 7.7559 8.77676C7.89873 8.64121 8.01242 8.47796 8.09001 8.29698C8.16761 8.116 8.20748 7.9211 8.2072 7.72419H12.0693C12.1973 7.72419 12.3201 7.77505 12.4106 7.86558C12.5012 7.95612 12.552 8.07891 12.552 8.20695V20.2759C12.552 20.4039 12.5012 20.5267 12.4106 20.6173C12.3201 20.7078 12.1973 20.7587 12.0693 20.7587H10.7031C10.3218 20.7503 9.95156 20.8872 9.66741 21.1416C9.38326 21.396 9.20642 21.7488 9.17271 22.1287C9.16208 22.3254 9.19167 22.5222 9.25967 22.707C9.32768 22.8919 9.43267 23.0609 9.56823 23.2038C9.70379 23.3466 9.86707 23.4604 10.0481 23.538C10.2291 23.6156 10.424 23.6555 10.621 23.6552H17.2975C17.6788 23.6636 18.049 23.5267 18.3332 23.2723C18.6173 23.0179 18.7942 22.665 18.8279 22.2852C18.8385 22.0885 18.8089 21.8917 18.7409 21.7069C18.6729 21.522 18.5679 21.353 18.4324 21.2101C18.2968 21.0672 18.1335 20.9535 17.9525 20.8759C17.7715 20.7983 17.5766 20.7584 17.3796 20.7587H15.9313C15.8033 20.7587 15.6805 20.7078 15.59 20.6173C15.4994 20.5267 15.4486 20.4039 15.4486 20.2759V8.20695C15.4486 8.07891 15.4994 7.95612 15.59 7.86558C15.6805 7.77505 15.8033 7.72419 15.9313 7.72419Z" fill="white"/>
</svg>
