<svg width="28" height="28" viewBox="0 0 28 28" fill="none" xmlns="http://www.w3.org/2000/svg">
<path d="M26.8148 0.0459425L0.621795 8.60481C-0.117932 8.84653 -0.224906 9.85271 0.448323 10.2441L10.3469 16C10.6592 16.1816 11.0495 16.1597 11.3394 15.9443L14.122 13.8779L12.0556 16.6605C11.8403 16.9505 11.8184 17.3408 11.9999 17.653L17.7558 27.5517C18.1476 28.2254 19.1536 28.1173 19.3951 27.3782L27.954 1.18512C28.1836 0.481797 27.5147 -0.182908 26.8148 0.0459425ZM18.304 24.901L13.8607 17.2595L19.2186 10.0449C19.4855 9.68527 19.4488 9.18439 19.1321 8.8677C18.8155 8.55101 18.3145 8.51421 17.9549 8.78122L10.7403 14.1392L3.0989 9.69577L25.684 2.31582L18.304 24.901ZM9.48317 19.794L3.48598 25.7911C3.13328 26.1438 2.56138 26.1439 2.20868 25.7911C1.85592 25.4384 1.85592 24.8665 2.20868 24.5138L8.20586 18.5167C8.55868 18.164 9.13058 18.1639 9.48317 18.5167C9.83593 18.8694 9.83593 19.4413 9.48317 19.794ZM1.5604 20.0209C1.20764 19.6682 1.20764 19.0963 1.5604 18.7436L3.9268 16.3771C4.27951 16.0244 4.85141 16.0244 5.20411 16.3771C5.55687 16.7299 5.55687 17.3018 5.20411 17.6545L2.8377 20.0209C2.48506 20.3736 1.9131 20.3736 1.5604 20.0209ZM11.6227 22.7957C11.9755 23.1484 11.9755 23.7203 11.6227 24.073L9.25624 26.4394C9.07989 26.6158 8.84872 26.704 8.61761 26.704C7.82014 26.704 7.40839 25.7326 7.97899 25.1621L10.3455 22.7957C10.6981 22.4429 11.27 22.4429 11.6227 22.7957Z" fill="white"/>
</svg>
