<?xml version="1.0" encoding="UTF-8"?>
<svg version="1.1" xmlns="http://www.w3.org/2000/svg" width="512" height="512">
<path d="M0 0 C3.63465651 3.04388756 6.99520905 6.31129272 10.32714844 9.68164062 C11.13925781 10.4834375 11.95136719 11.28523438 12.78808594 12.11132812 C29.55392937 29.56382726 37.70695491 54.75383273 37.32714844 78.68164062 C36.45427502 106.32670155 24.39861125 129.21639616 4.90136719 148.37695312 C0.98099692 151.88684457 -3.25135347 154.84059292 -7.67285156 157.68164062 C-6.41988281 158.019375 -5.16691406 158.35710937 -3.87597656 158.70507812 C-2.22487478 159.15537861 -0.57383641 159.60591163 1.07714844 160.05664062 C1.90214844 160.27835938 2.72714844 160.50007812 3.57714844 160.72851562 C4.37636719 160.94765625 5.17558594 161.16679687 5.99902344 161.39257812 C6.73217773 161.59157715 7.46533203 161.79057617 8.22070312 161.99560547 C10.32714844 162.68164062 10.32714844 162.68164062 12.44750977 163.76147461 C14.92939829 164.97646848 16.54565459 164.71687019 19.26464844 164.36914062 C20.09867187 164.26988281 20.93269531 164.170625 21.79199219 164.06835938 C23.46943793 163.81247782 25.14027624 163.50822474 26.79980469 163.15429688 C38.42649165 160.97990874 50.31410603 163.06938164 60.26464844 169.30664062 C63.14385142 171.02763283 63.14385142 171.02763283 66.32714844 171.68164062 C70.30208575 170.44713366 73.52976835 168.70280026 77.08496094 166.58398438 C86.42598002 161.10316956 98.20215456 161.53623712 108.51464844 163.86914062 C121.79278431 167.66787241 132.80035934 175.39700464 140.11621094 187.32226562 C146.81573576 200.37553334 148.38296472 214.61487963 144.35839844 228.77539062 C139.24454953 243.18714664 128.07234214 253.09207466 117.40556335 263.52556419 C114.39060947 266.4786088 111.39176103 269.44797453 108.38964844 272.4140625 C104.59426238 276.16147317 100.79434473 279.90399051 96.97949219 283.6315918 C93.8697455 286.67104704 90.77489531 289.72498616 87.68940735 292.78905678 C86.51782304 293.94708939 85.34085352 295.09970095 84.15837097 296.24660301 C82.5096888 297.84693437 80.88070486 299.46511776 79.25488281 301.08862305 C78.32494507 302.00222092 77.39500732 302.91581879 76.43688965 303.85710144 C73.94631678 307.19150124 73.57745839 309.57477922 73.32714844 313.68164062 C73.92140625 313.63523437 74.51566406 313.58882813 75.12792969 313.54101562 C84.75895646 313.1216241 92.24596561 315.57121775 99.70214844 321.74414062 C107.07153721 328.98444775 109.76232154 336.12159586 109.88964844 346.30664062 C109.71408575 356.05196589 107.12016727 362.60045129 100.44384766 369.66796875 C93.54529238 376.2307466 84.770761 381.03495299 76.76464844 386.11914062 C74.55498454 387.52795012 72.34534998 388.93680564 70.13574219 390.34570312 C69.00020198 391.0687465 67.86462245 391.79172811 66.72900391 392.51464844 C61.2563612 395.99942811 55.79184529 399.49691895 50.32714844 402.99414062 C49.27865723 403.66485596 48.23016602 404.33557129 47.14990234 405.02661133 C41.30201028 408.76961314 35.4641192 412.52731257 29.63964844 416.30664062 C20.43812835 422.27482843 11.18687734 428.16415113 1.921875 434.03320312 C-0.47171506 435.553858 -2.85835393 437.08476875 -5.24316406 438.61914062 C-20.23801934 448.21856137 -35.35056062 455.83553279 -53.75242996 452.27981186 C-55.99210903 451.74582792 -58.21227058 451.16377168 -60.43310547 450.55615234 C-61.66946212 450.22360349 -61.66946212 450.22360349 -62.93079567 449.88433647 C-71.23438912 447.6048855 -79.38620108 444.91273923 -87.52976608 442.12213516 C-90.1515236 441.22448194 -92.77630508 440.33620679 -95.40200806 439.45016479 C-102.84986535 436.93537178 -110.29273769 434.40605258 -117.73242188 431.8671875 C-122.32207157 430.30162963 -126.91553699 428.74774197 -131.51155472 427.20098495 C-133.25061874 426.61303765 -134.98815301 426.02054474 -136.7240715 425.42337418 C-139.13622851 424.59373408 -141.55293554 423.77894434 -143.97119141 422.96728516 C-144.68077499 422.71907516 -145.39035858 422.47086517 -146.1214447 422.21513367 C-151.03841731 420.58907862 -154.15864186 420.46304065 -158.80102539 422.71313477 C-159.48704834 423.12684326 -160.17307129 423.54055176 -160.87988281 423.96679688 C-161.63076172 424.41474609 -162.38164062 424.86269531 -163.15527344 425.32421875 C-163.92419922 425.79279297 -164.693125 426.26136719 -165.48535156 426.74414062 C-166.27361328 427.21658203 -167.061875 427.68902344 -167.87402344 428.17578125 C-169.81097764 429.33795377 -171.74363451 430.5066848 -173.67285156 431.68164062 C-172.33760171 435.34217925 -170.65520787 438.33020346 -168.48535156 441.55664062 C-166.59934881 444.72812784 -165.68365269 446.61203335 -165.11035156 450.30664062 C-169.02357919 458.75921231 -181.04008467 463.9239016 -188.79785156 468.68164062 C-195.44538991 472.77911379 -202.0610785 476.90872145 -208.57910156 481.20898438 C-209.71422198 481.95332862 -210.84947443 482.69747154 -211.98486328 483.44140625 C-214.15515257 484.86800761 -216.31855531 486.30515397 -218.47412109 487.75390625 C-219.46009277 488.39908203 -220.44606445 489.04425781 -221.46191406 489.70898438 C-222.32510254 490.28382568 -223.18829102 490.85866699 -224.07763672 491.45092773 C-227.18907902 492.92644802 -229.26671172 493.0520073 -232.67285156 492.68164062 C-237.38601345 489.01666249 -240.32700544 483.91974788 -243.48535156 478.93164062 C-244.04230713 478.0632959 -244.5992627 477.19495117 -245.1730957 476.30029297 C-246.37859481 474.41909692 -247.5812096 472.53605011 -248.78125 470.65136719 C-250.70995828 467.6233848 -252.64735116 464.60111752 -254.58691406 461.58007812 C-262.74287786 448.86903292 -270.85267194 436.12852899 -278.95507812 423.38330078 C-281.27604873 419.73295105 -283.59831119 416.08342538 -285.92163086 412.43457031 C-287.0809914 410.61204844 -288.23873042 408.78849396 -289.39477539 406.96386719 C-292.43586706 402.16861367 -295.50852033 397.39776071 -298.62988281 392.65429688 C-299.27505859 391.66494141 -299.92023438 390.67558594 -300.58496094 389.65625 C-301.81966938 387.76421476 -303.06395943 385.87838551 -304.31933594 384 C-309.91752025 375.37892589 -309.91752025 375.37892589 -309.67285156 369.68164062 C-306.93128203 364.64533195 -302.07181921 362.13108924 -297.29785156 359.24414062 C-295.5851911 358.18622794 -293.87296923 357.12760495 -292.16113281 356.06835938 C-291.26475098 355.51712402 -290.36836914 354.96588867 -289.44482422 354.39794922 C-285.70325511 352.08130039 -281.99388527 349.71585057 -278.28588867 347.34594727 C-275.50765046 345.57088774 -272.7233611 343.805624 -269.93847656 342.04101562 C-266.59312 339.91701833 -263.27160215 337.7631771 -259.96972656 335.57226562 C-259.24938232 335.10191895 -258.52903809 334.63157227 -257.78686523 334.14697266 C-256.46867883 333.28575126 -255.15814799 332.41263221 -253.85766602 331.52490234 C-250.98776338 329.66848713 -248.51390487 328.64726419 -245.16894531 327.92382812 C-239.94684121 329.05577024 -237.74318874 332.50075596 -234.67285156 336.68164062 C-231.11900495 334.58880251 -227.56688235 332.49307279 -224.01611328 330.39501953 C-222.81635089 329.68660354 -221.6161766 328.97888451 -220.41552734 328.27197266 C-219.8417334 327.93407715 -219.26793945 327.59618164 -218.67675781 327.24804688 C-218.09606033 326.9077243 -217.51536285 326.56740173 -216.91706848 326.21676636 C-215.71862724 325.50223554 -214.52960784 324.77169449 -213.34989929 324.02664185 C-210.04823594 321.96100725 -206.9167471 320.34926139 -203.24243164 319.04052734 C-198.43574801 317.11741811 -194.50142135 315.16535713 -191.67285156 310.68164062 C-189.07644887 301.0890189 -189.92415619 290.64505743 -190.28552246 280.79608154 C-190.45758391 275.64672873 -190.50165321 270.49444346 -190.56147766 265.34280396 C-190.59363685 262.60783769 -190.66322017 259.88269824 -190.75480652 257.14816284 C-191.36685481 232.78331887 -183.05885528 210.50465739 -167.67285156 191.68164062 C-167.04765625 190.89144531 -166.42246094 190.10125 -165.77832031 189.28710938 C-153.37053931 174.37165052 -132.72941706 161.02407797 -113.17285156 158.80664062 C-112.01785156 158.76539063 -110.86285156 158.72414062 -109.67285156 158.68164062 C-112.23379606 156.02882367 -114.8284269 153.73714065 -117.79785156 151.55664062 C-137.44240754 136.35626288 -149.46055775 115.0234801 -153.67285156 90.68164062 C-156.6093533 65.20229724 -151.33383719 40.61988471 -136.44238281 19.52148438 C-134.28077567 16.80130264 -132.0329686 14.23072785 -129.67285156 11.68164062 C-128.92648438 10.84375 -128.18011719 10.00585938 -127.41113281 9.14257812 C-94.99546667 -25.46985217 -37.1186553 -29.25288071 0 0 Z M-117.67285156 21.68164062 C-118.35347656 22.36226562 -119.03410156 23.04289062 -119.73535156 23.74414062 C-134.71863481 39.79765839 -139.36906992 60.6414672 -138.97753906 81.87695312 C-138.27467378 99.75064307 -130.74977522 116.55552027 -118.67285156 129.68164062 C-117.92390625 130.52210938 -117.17496094 131.36257812 -116.40332031 132.22851562 C-102.66227572 146.87971019 -83.04055747 155.77232363 -63.01660156 156.88476562 C-48.99543526 157.05575546 -36.40318015 154.81822167 -23.67285156 148.68164062 C-22.76019531 148.26269531 -21.84753906 147.84375 -20.90722656 147.41210938 C-12.95226606 143.46872181 -6.88878168 137.88885275 -0.67285156 131.68164062 C0.44283203 130.58335937 0.44283203 130.58335937 1.58105469 129.46289062 C17.0515964 113.2354731 21.89613221 92.41722855 21.59667969 70.62695312 C21.02029227 52.71067433 13.42095733 35.82611313 1.32714844 22.68164062 C0.57820312 21.84117188 -0.17074219 21.00070313 -0.94238281 20.13476562 C-14.79665102 5.36284799 -34.50602846 -3.40428178 -54.68066406 -4.47851562 C-79.39666361 -5.11438586 -100.45926957 4.46805863 -117.67285156 21.68164062 Z M-154.98925781 200.11914062 C-169.93642408 217.90363591 -176.08042486 238.65114695 -175.86816406 261.66601562 C-175.86533417 262.84762268 -175.86250427 264.02922974 -175.85958862 265.24664307 C-175.84850365 268.97508404 -175.82342137 272.70327377 -175.79785156 276.43164062 C-175.78780665 278.97851213 -175.77868346 281.52538744 -175.77050781 284.07226562 C-175.74860273 290.27547456 -175.71524374 296.47853964 -175.67285156 302.68164062 C-174.54015083 302.47092422 -174.54015083 302.47092422 -173.38456726 302.25595093 C-172.39390762 302.07335724 -171.40324799 301.89076355 -170.38256836 301.70263672 C-169.40055954 301.52090912 -168.41855072 301.33918152 -167.40678406 301.15194702 C-150.10566398 298.17571134 -132.94758455 305.39168759 -116.79003906 310.84570312 C-115.00165399 311.44433174 -113.21308554 312.04241276 -111.42434692 312.63998413 C-106.74231817 314.20570408 -102.06272826 315.7785871 -97.38366699 317.35314941 C-91.79868315 319.23099836 -86.21074588 321.10003811 -80.62318802 322.97021103 C-76.08660791 324.48910835 -71.55105656 326.01093603 -67.01776123 327.53961182 C-58.89048586 330.27831848 -50.75806228 332.99038818 -42.58789062 335.59863281 C-40.53068454 336.26141278 -38.47382877 336.92526802 -36.41708755 337.58948898 C-34.56830282 338.18103631 -32.71427268 338.75611323 -30.8600769 339.33047485 C-22.49702352 342.03371557 -15.41713424 345.51482584 -10.23535156 352.86914062 C-9.76226562 353.52269531 -9.28917969 354.17625 -8.80175781 354.84960938 C-7.67285156 356.68164063 -7.67285156 356.68164063 -6.67285156 359.68164062 C-2.80907825 359.11522136 -0.26700466 358.03213387 2.96777344 355.86523438 C3.86133545 355.27363525 4.75489746 354.68203613 5.67553711 354.07250977 C6.63306885 353.42789795 7.59060059 352.78328613 8.57714844 352.11914062 C10.64018816 350.75080303 12.70401899 349.38365757 14.76855469 348.01757812 C15.84121582 347.30569336 16.91387695 346.59380859 18.01904297 345.86035156 C24.4813267 341.60430581 31.01992887 337.46700498 37.54882812 333.31420898 C39.495813 332.07273993 41.43437705 330.81795354 43.36376953 329.54931641 C46.32714844 327.68164062 46.32714844 327.68164062 49.73193359 325.88818359 C50.8319873 325.27217285 51.93204102 324.65616211 53.06542969 324.02148438 C54.07259033 323.49804443 55.07975098 322.97460449 56.11743164 322.43530273 C59.30449368 318.46371144 59.54656953 315.33581135 59.31785583 310.3065033 C57.21711796 302.62019116 50.83943267 297.7202511 45.19433594 292.41992188 C43.8379557 291.09801593 42.48474153 289.77285434 41.134552 288.44462585 C37.58348904 284.965585 33.99698295 281.52564932 30.39959717 278.09460449 C24.65557987 272.60410061 18.96733924 267.05589972 13.27951431 261.50731468 C11.29993204 259.5867335 9.30525095 257.68305775 7.30734253 255.78157043 C-4.06502637 244.86232392 -12.77685769 232.94924217 -13.87597656 216.67382812 C-14.0883534 202.55076858 -10.74642557 189.46906326 -0.80957031 179.05664062 C0.53953655 177.72206923 0.53953655 177.72206923 0.32714844 175.68164062 C-1.35875998 175.19690385 -3.04667701 174.71915137 -4.73535156 174.24414062 C-5.67507813 173.97730469 -6.61480469 173.71046875 -7.58300781 173.43554688 C-13.62737815 171.96075108 -19.55488147 171.5301633 -25.75683594 171.52050781 C-26.53355652 171.51554291 -27.3102771 171.510578 -28.11053467 171.50546265 C-30.66256625 171.4909435 -33.21453557 171.48405421 -35.76660156 171.47851562 C-36.64612991 171.47568825 -37.52565826 171.47286087 -38.43183899 171.46994781 C-43.09160661 171.45499241 -47.75134359 171.44574144 -52.41113281 171.44140625 C-57.18393101 171.43594446 -61.95644064 171.41195456 -66.72914886 171.3834343 C-70.43388642 171.36464753 -74.13855689 171.35959375 -77.84333801 171.35807037 C-79.60050524 171.35507648 -81.35767224 171.34716098 -83.11479187 171.33388519 C-111.05190815 171.13796885 -135.41887701 179.52568764 -154.98925781 200.11914062 Z M10.35449219 188.53320312 C3.51091354 195.8272084 0.63741611 203.29191245 0.17089844 213.27539062 C0.94419631 230.13328432 12.58974935 240.24288874 23.82324219 251.37304688 C25.0243701 252.57043663 26.22505129 253.76827465 27.42530823 254.96653748 C30.55916254 258.09281851 33.69897909 261.21304194 36.84014893 264.33197021 C40.05498929 267.52621504 43.26405338 270.72625182 46.47363281 273.92578125 C52.75255193 280.18336196 59.03779584 286.43454765 65.32714844 292.68164062 C71.92441196 287.24456547 77.94148937 281.24929551 83.99121094 275.22070312 C84.54121136 274.67353008 85.09121178 274.12635704 85.65787888 273.562603 C88.56465506 270.67073178 91.46860965 267.77606333 94.37011719 264.87890625 C97.35003059 261.90448615 100.33911922 258.93946892 103.33045387 255.97654152 C105.64678044 253.6789191 107.95629371 251.37453764 110.26404953 249.06830978 C111.36266582 247.97269946 112.46375792 246.87956541 113.56746292 245.78908157 C123.49880134 235.96833834 129.92855789 227.47076768 131.76464844 213.30664062 C130.63746146 203.96709139 127.86281815 195.56377957 121.32714844 188.68164062 C120.8025 188.12863281 120.27785156 187.575625 119.73730469 187.00585938 C113.17321328 180.78155623 103.60788051 177.19503616 94.53027344 177.41210938 C86.49079318 178.39566281 79.80553231 180.99719545 73.45214844 185.99414062 C68.73781898 189.63207694 68.73781898 189.63207694 64.70214844 190.11914062 C60.73024232 188.42740283 57.88771428 186.12660044 54.56933594 183.40039062 C40.90605002 172.92679167 22.04277769 177.56241634 10.35449219 188.53320312 Z M-200.28222656 333.91601562 C-203.60662721 336.02136571 -206.95487668 338.08441822 -210.31347656 340.13476562 C-211.75460815 341.01696777 -211.75460815 341.01696777 -213.22485352 341.91699219 C-215.1247725 343.0789022 -217.02690374 344.23720371 -218.93139648 345.39160156 C-219.7935376 345.92043945 -220.65567871 346.44927734 -221.54394531 346.99414062 C-222.31665771 347.46464844 -223.08937012 347.93515625 -223.88549805 348.41992188 C-225.81424225 349.57042299 -225.81424225 349.57042299 -226.67285156 351.68164062 C-225.70843946 353.69861916 -225.70843946 353.69861916 -224.20019531 355.91601562 C-223.6376001 356.78863037 -223.07500488 357.66124512 -222.49536133 358.56030273 C-221.56228149 359.98161499 -221.56228149 359.98161499 -220.61035156 361.43164062 C-219.3054078 363.44840191 -218.00072737 365.46533362 -216.69628906 367.48242188 C-216.02436523 368.5157666 -215.35244141 369.54911133 -214.66015625 370.61376953 C-212.22698217 374.36994465 -209.83043973 378.14844704 -207.43725586 381.93017578 C-199.63462783 394.2581266 -191.66940637 406.47886418 -183.67285156 418.68164062 C-180.1948546 417.38612707 -177.17679321 415.86406905 -174.05566406 413.86132812 C-172.77369141 413.05888672 -172.77369141 413.05888672 -171.46582031 412.24023438 C-169.68921267 411.11912472 -167.91831947 409.98890721 -166.15332031 408.84960938 C-164.86748047 408.05103516 -164.86748047 408.05103516 -163.55566406 407.23632812 C-162.40155029 406.5013208 -162.40155029 406.5013208 -161.22412109 405.75146484 C-155.67539776 403.42471789 -150.40035041 404.81432951 -144.89672852 406.65014648 C-144.25793259 406.86002197 -143.61913666 407.06989746 -142.96098328 407.28613281 C-140.85765975 407.97983573 -138.75955361 408.68810344 -136.66113281 409.39648438 C-135.16911132 409.89153526 -133.67676931 410.38562111 -132.18412781 410.87879944 C-128.24465986 412.1830972 -124.30937677 413.49958817 -120.37493896 414.81896973 C-116.47708716 416.12419404 -112.57593636 417.41946203 -108.67480469 418.71484375 C-107.1360519 419.22594537 -105.59730474 419.73706389 -104.05856323 420.24819946 C-103.30086514 420.499865 -102.54316704 420.75153053 -101.76250839 421.0108223 C-99.47968293 421.76947374 -97.19721648 422.52919675 -94.91482544 423.28915405 C-85.19472307 426.5240191 -75.46444334 429.72512633 -65.71582031 432.87304688 C-63.98541252 433.43462746 -63.98541252 433.43462746 -62.220047 434.0075531 C-61.16057358 434.34803177 -60.10110016 434.68851044 -59.00952148 435.03930664 C-58.09377853 435.33434586 -57.17803558 435.62938507 -56.23454285 435.93336487 C-45.78058327 438.98698986 -35.67734982 438.06345478 -25.83300781 433.31054688 C-22.71269757 431.52567806 -19.6917747 429.63337622 -16.67285156 427.68164062 C-15.41898698 426.87819017 -14.16507852 426.0748082 -12.91113281 425.27148438 C-10.0672217 423.44175582 -7.23168042 421.59964768 -4.39941406 419.75195312 C0.65216672 416.46151293 5.73775765 413.22568764 10.82714844 409.99414062 C27.22998077 399.57134203 43.63241182 389.14411426 59.91699219 378.53710938 C63.35034225 376.3037808 66.80710204 374.10941803 70.26855469 371.91992188 C72.35067897 370.5906405 74.43271078 369.26121427 76.51464844 367.93164062 C77.49578613 367.31732178 78.47692383 366.70300293 79.48779297 366.07006836 C85.53862378 362.18548737 91.02249622 358.29094506 94.32714844 351.68164062 C94.88427975 345.72462118 94.8489503 340.72955663 91.32714844 335.68164062 C87.41297622 331.93764981 83.96570231 328.94475919 78.43652344 328.54492188 C73.49254554 328.71387076 69.99760632 330.23535425 65.78027344 332.76367188 C64.72573975 333.39539307 63.67120605 334.02711426 62.5847168 334.67797852 C57.39678635 337.86896594 52.25774203 341.12998188 47.13964844 344.43164062 C45.50129028 345.48424072 45.50129028 345.48424072 43.82983398 346.55810547 C39.11558281 349.58891869 34.40675103 352.62806166 29.70214844 355.67382812 C29.01822021 356.11621826 28.33429199 356.5586084 27.62963867 357.0144043 C26.30862727 357.87222706 24.99039221 358.73434129 23.67504883 359.60083008 C19.70493341 362.20347745 15.67800082 364.65927893 11.57324219 367.04492188 C10.5796167 367.63772949 9.58599121 368.23053711 8.56225586 368.84130859 C6.63167174 369.99110115 4.68580886 371.11577787 2.72290039 372.20947266 C-3.71736463 376.09500384 -6.23894855 379.74130078 -8.62817383 386.87158203 C-10.97962455 393.19670422 -15.53047388 397.32883763 -21.29785156 400.61914062 C-38.71324876 408.34180545 -58.09125023 398.70774616 -74.86572266 393.08105469 C-77.9567595 392.0452784 -81.0509447 391.01932733 -84.14550781 389.99414062 C-86.11835705 389.33586456 -88.09102047 388.67703127 -90.06347656 388.01757812 C-90.98525696 387.71234222 -91.90703735 387.40710632 -92.85675049 387.09262085 C-93.70904236 386.8053714 -94.56133423 386.51812195 -95.43945312 386.22216797 C-96.18696838 385.97220062 -96.93448364 385.72223328 -97.70465088 385.46469116 C-99.67285156 384.68164062 -99.67285156 384.68164062 -102.67285156 382.68164062 C-103.59963771 379.10689406 -104.07696726 376.73234143 -102.73535156 373.24414062 C-99.58074848 370.8542898 -96.44492243 371.24565312 -92.67285156 371.68164062 C-88.69243626 372.67595035 -84.85147826 374.00922378 -80.98144531 375.36523438 C-79.87736832 375.74019547 -78.77329132 376.11515656 -77.63575745 376.5014801 C-74.12326913 377.6959636 -70.61657472 378.90640218 -67.11035156 380.11914062 C-63.59990522 381.32621021 -60.08833011 382.52968544 -56.57423401 383.72608948 C-54.39269169 384.46950853 -52.21331882 385.21933341 -50.03648376 385.97642517 C-39.33861996 389.75808438 -39.33861996 389.75808438 -28.53222656 387.76757812 C-24.26888935 385.27764589 -21.54533201 381.19037645 -19.67285156 376.68164062 C-18.99211321 371.44153842 -19.01551899 367.02065143 -21.36035156 362.24414062 C-25.62491128 357.51854742 -29.53023266 355.10236424 -35.56347656 353.07226562 C-36.26820099 352.83230362 -36.97292542 352.59234161 -37.69900513 352.34510803 C-40.10351885 351.53001999 -42.51296759 350.73070004 -44.92285156 349.93164062 C-46.66344653 349.34653546 -48.40383606 348.76081885 -50.14404297 348.17456055 C-55.99291847 346.21042858 -61.84957737 344.27010444 -67.7071991 342.33223724 C-69.79903084 341.63987749 -71.8905735 340.9466499 -73.98205566 340.25323486 C-84.50870676 336.7634108 -95.03838958 333.28285301 -105.57090759 329.81077576 C-107.22063875 329.26686825 -108.87030727 328.7227707 -110.51991272 328.17848206 C-115.28970812 326.60469921 -120.0604722 325.03392056 -124.83275986 323.46771049 C-126.30189229 322.98514527 -127.77072658 322.50167123 -129.23923111 322.01719856 C-160.02916078 311.86350139 -173.63456504 317.01710094 -200.28222656 333.91601562 Z M-255.86035156 351.30664062 C-264.01876771 356.62498927 -272.22490227 361.86524448 -280.44702148 367.08447266 C-281.34396729 367.65407715 -282.24091309 368.22368164 -283.16503906 368.81054688 C-283.96280762 369.31658447 -284.76057617 369.82262207 -285.58251953 370.34399414 C-287.2915451 371.43763478 -288.98462618 372.55615704 -290.67285156 373.68164062 C-290.03463917 376.98164289 -288.82507331 379.29806266 -287.00488281 382.11132812 C-286.17053711 383.41070312 -286.17053711 383.41070312 -285.31933594 384.73632812 C-284.41151367 386.13238281 -284.41151367 386.13238281 -283.48535156 387.55664062 C-282.20005037 389.55394319 -280.9148982 391.55134167 -279.62988281 393.54882812 C-278.97068848 394.56944336 -278.31149414 395.59005859 -277.63232422 396.64160156 C-274.62451809 401.30808572 -271.64933664 405.99514314 -268.67285156 410.68164062 C-267.50374935 412.51898751 -266.33447804 414.35622681 -265.16503906 416.19335938 C-262.8568627 419.8204017 -260.54963838 423.44804699 -258.24316406 427.07617188 C-257.09479019 428.88220192 -255.94635261 430.68819145 -254.79785156 432.49414062 C-253.95130005 433.82529907 -253.95130005 433.82529907 -253.08764648 435.18334961 C-249.846555 440.27636337 -246.59766701 445.36431351 -243.34082031 450.44726562 C-242.79530518 451.29879463 -242.79530518 451.29879463 -242.23876953 452.16752625 C-240.46477798 454.93634938 -238.68983187 457.70455377 -236.91357422 460.47192383 C-236.27339355 461.47054443 -235.63321289 462.46916504 -234.97363281 463.49804688 C-234.40813721 464.37920166 -233.8426416 465.26035645 -233.26000977 466.16821289 C-231.69228917 468.65085919 -230.17329538 471.15787091 -228.67285156 473.68164062 C-225.022831 473.12294775 -222.53850896 472.21382316 -219.47753906 470.16210938 C-218.29272949 469.37839966 -218.29272949 469.37839966 -217.08398438 468.57885742 C-216.24706055 468.01465088 -215.41013672 467.45044434 -214.54785156 466.86914062 C-212.76998383 465.69088238 -210.991316 464.51383064 -209.21191406 463.33789062 C-208.3021582 462.73460937 -207.39240234 462.13132812 -206.45507812 461.50976562 C-201.98163256 458.57038686 -197.45446491 455.71771917 -192.92285156 452.86914062 C-192.0951123 452.34795654 -191.26737305 451.82677246 -190.41455078 451.28979492 C-188.50140757 450.08586578 -186.58755737 448.88308248 -184.67285156 447.68164062 C-185.28183405 444.77898392 -186.16781693 442.57832611 -187.71972656 440.05664062 C-188.35841675 439.0129834 -188.35841675 439.0129834 -189.01000977 437.94824219 C-189.47624756 437.20026367 -189.94248535 436.45228516 -190.42285156 435.68164062 C-191.15604614 434.49393066 -191.15604614 434.49393066 -191.90405273 433.28222656 C-196.585319 425.73957048 -201.43253412 418.30674878 -206.29003906 410.87695312 C-209.77072363 405.54582917 -213.19639775 400.18067728 -216.61035156 394.80664062 C-217.18857666 393.8968042 -217.76680176 392.98696777 -218.36254883 392.04956055 C-220.74120846 388.30450006 -223.11771551 384.55808495 -225.49169922 380.81005859 C-234.39547612 366.74835193 -234.39547612 366.74835193 -243.48535156 352.80664062 C-244.10748535 351.86026733 -244.10748535 351.86026733 -244.7421875 350.89477539 C-245.69159847 349.47167761 -246.67789637 348.0732773 -247.67285156 346.68164062 C-250.29938483 346.68164062 -253.63441512 349.84663665 -255.86035156 351.30664062 Z " fill="#000000" transform="translate(337.6728515625,19.318359375)"/>
<path d="M0 0 C2.0244931 1.80575477 2.90347773 3.20932172 3.234375 5.91992188 C3.29550493 8.20414372 3.26135335 10.46622709 3.1875 12.75 C3.16719727 13.93916016 3.16719727 13.93916016 3.14648438 15.15234375 C3.11125223 17.10185564 3.05744821 19.05101626 3 21 C4.16917969 20.94199219 5.33835937 20.88398438 6.54296875 20.82421875 C8.0911058 20.77730551 9.63928617 20.73180702 11.1875 20.6875 C11.95642578 20.64560547 12.72535156 20.60371094 13.51757812 20.56054688 C17.82749996 20.46805928 19.48279063 20.60070365 23.015625 23.328125 C25 26 25 26 25.5625 29.0625 C24.84508134 32.80901969 24.09564404 33.76980483 21 36 C17.90203079 36.48974559 14.87640935 36.37701038 11.75 36.25 C10.48929687 36.22292969 10.48929687 36.22292969 9.203125 36.1953125 C7.13492605 36.14830798 5.06731559 36.07656724 3 36 C3.04640625 37.25296875 3.0928125 38.5059375 3.140625 39.796875 C3.17814813 41.44789281 3.21454771 43.09893642 3.25 44.75 C3.28351563 45.575 3.31703125 46.4 3.3515625 47.25 C3.44994201 53.34952951 3.44994201 53.34952951 1.23828125 56.546875 C-2.47531341 58.95779509 -4.62823579 58.55514466 -9 58 C-11.14677694 56.20134905 -11.91139101 54.76924899 -12.23217773 51.984375 C-12.29576187 49.5656244 -12.26118539 47.16839235 -12.1875 44.75 C-12.16719727 43.48929687 -12.16719727 43.48929687 -12.14648438 42.203125 C-12.11123464 40.13514062 -12.0574302 38.06748729 -12 36 C-12.55985596 36.02094727 -13.11971191 36.04189453 -13.6965332 36.06347656 C-16.23500586 36.14666202 -18.773192 36.19866381 -21.3125 36.25 C-22.19357422 36.28351563 -23.07464844 36.31703125 -23.98242188 36.3515625 C-30.48009737 36.45038646 -30.48009737 36.45038646 -33.07421875 34.203125 C-34.46429745 30.8950896 -34.50611809 28.54282666 -34 25 C-31.87862465 22.64012683 -30.1933237 21.18837363 -26.99560547 20.68359375 C-24.71323317 20.60668828 -22.46885844 20.65056107 -20.1875 20.75 C-19.00510742 20.77707031 -19.00510742 20.77707031 -17.79882812 20.8046875 C-15.86535739 20.85155952 -13.93251715 20.9232959 -12 21 C-12.05800781 19.74703125 -12.11601562 18.4940625 -12.17578125 17.203125 C-12.22268478 15.5521206 -12.26818431 13.90107589 -12.3125 12.25 C-12.35439453 11.425 -12.39628906 10.6 -12.43945312 9.75 C-12.56278432 3.63277283 -12.56278432 3.63277283 -9.70703125 0.421875 C-6.00387959 -1.52321476 -3.96408376 -1.17454334 0 0 Z " fill="#000000" transform="translate(408,219)"/>
</svg>
