<svg width="40" height="40" viewBox="0 0 40 40" fill="none" xmlns="http://www.w3.org/2000/svg">
<path fill-rule="evenodd" clip-rule="evenodd" d="M38.3333 17.9883L30.8333 25.4883L21.35 16.0058C20.4417 15.095 19.2042 14.5833 17.9167 14.5833C16.6292 14.5833 15.3917 15.095 14.4833 16.0058L4.16667 26.3217V10.4167C4.16667 9.95667 3.79167 9.58333 3.33333 9.58333C2.875 9.58333 2.5 9.95667 2.5 10.4167V36.6667C2.5 38.5075 3.99167 40 5.83333 40H36.6667C37.55 40 38.4 39.6487 39.025 39.0237C39.65 38.3987 40 37.5508 40 36.6667V5.83333C40 3.9925 38.5083 2.5 36.6667 2.5C29.675 2.5 10.4167 2.5 10.4167 2.5C9.95833 2.5 9.58333 2.87333 9.58333 3.33333C9.58333 3.79333 9.95833 4.16667 10.4167 4.16667H36.6667C37.5875 4.16667 38.3333 4.91292 38.3333 5.83333V17.9883ZM30.2459 27.2558L20.1708 17.1842C19.575 16.5862 18.7625 16.25 17.9167 16.25C17.0708 16.25 16.2584 16.5862 15.6625 17.1842L4.16667 28.6783V36.6667C4.16667 37.5871 4.9125 38.3333 5.83333 38.3333H36.6667C37.1083 38.3333 37.5334 38.1579 37.8459 37.845C38.1584 37.5325 38.3333 37.1087 38.3333 36.6667V35.345L30.2459 27.2558ZM32.0125 26.6667L38.3333 32.9883V20.345L32.0125 26.6667ZM30 5.83333C27.7 5.83333 25.8333 7.70042 25.8333 10C25.8333 12.2996 27.7 14.1667 30 14.1667C32.3 14.1667 34.1667 12.2996 34.1667 10C34.1667 7.70042 32.3 5.83333 30 5.83333ZM0.81665 5.83333C0.362484 5.84208 0 6.21292 0 6.66708C0 7.12125 0.362484 7.49167 0.81665 7.5C3.57915 7.54917 5.82083 9.74125 5.83333 12.5042C5.8375 12.9629 6.20833 13.3333 6.66667 13.3333C7.125 13.3333 7.49583 12.9633 7.5 12.505C7.51667 9.74583 9.74584 7.52458 12.5083 7.5C12.9667 7.49583 13.3333 7.12458 13.3333 6.6675C13.3333 6.21042 12.9667 5.83833 12.5083 5.83333C9.74167 5.80417 7.52083 3.59333 7.5 0.827084C7.49583 0.369584 7.125 0 6.66667 0C6.20833 0 5.8375 0.369584 5.83333 0.827084C5.8125 3.5975 3.57498 5.78167 0.81665 5.83333ZM30 7.5C31.3792 7.5 32.5 8.62042 32.5 10C32.5 11.3796 31.3792 12.5 30 12.5C28.6208 12.5 27.5 11.3796 27.5 10C27.5 8.62042 28.6208 7.5 30 7.5ZM4.00838 6.66583C5.12505 6.05583 6.04583 5.14333 6.6625 4.03458C7.275 5.14208 8.1917 6.05583 9.30003 6.66625C8.1917 7.2775 7.275 8.19125 6.66667 9.29667C6.05 8.18917 5.12505 7.27583 4.00838 6.66583Z" fill="#00FFD1"/>
</svg>
