<svg width="36" height="40" viewBox="0 0 36 40" fill="none" xmlns="http://www.w3.org/2000/svg">
<path d="M17.0639 16.4285H15.6353C15.1619 16.429 14.708 16.6173 14.3732 16.952C14.0384 17.2868 13.8501 17.7407 13.8496 18.2142V22.857C13.8496 23.0465 13.9249 23.2282 14.0588 23.3621C14.1928 23.4961 14.3745 23.5713 14.5639 23.5713C14.7533 23.5713 14.935 23.4961 15.069 23.3621C15.2029 23.2282 15.2782 23.0465 15.2782 22.857V20.7142H17.421V22.857C17.421 23.0465 17.4963 23.2282 17.6302 23.3621C17.7642 23.4961 17.9459 23.5713 18.1353 23.5713C18.3248 23.5713 18.5064 23.4961 18.6404 23.3621C18.7744 23.2282 18.8496 23.0465 18.8496 22.857V18.2142C18.8491 17.7407 18.6608 17.2868 18.326 16.952C17.9913 16.6173 17.5373 16.429 17.0639 16.4285ZM15.2782 19.2856V18.2142C15.2783 18.1195 15.316 18.0287 15.3829 17.9618C15.4499 17.8948 15.5406 17.8572 15.6353 17.857H17.0639C17.1586 17.8572 17.2493 17.8948 17.3163 17.9618C17.3832 18.0287 17.4209 18.1195 17.421 18.2142V19.2856H15.2782Z" fill="#00FFD1"/>
<path d="M20.2783 17.1428V22.857C20.2783 23.0465 20.3536 23.2282 20.4875 23.3621C20.6215 23.4961 20.8032 23.5713 20.9926 23.5713C21.182 23.5713 21.3637 23.4961 21.4977 23.3621C21.6316 23.2282 21.7069 23.0465 21.7069 22.857V17.1428C21.7069 16.9533 21.6316 16.7716 21.4977 16.6377C21.3637 16.5037 21.182 16.4285 20.9926 16.4285C20.8032 16.4285 20.6215 16.5037 20.4875 16.6377C20.3536 16.7716 20.2783 16.9533 20.2783 17.1428Z" fill="#00FFD1"/>
<path d="M35.1145 10.0007C32.9681 6.27094 24.8668 7.97086 17.7909 11.3114L17.7897 11.3124C16.1484 10.5317 14.4601 9.85394 12.7346 9.28301C13.9642 4.39554 15.9457 1.42857 17.7958 1.42857C18.1744 1.45661 18.5431 1.56224 18.8791 1.73888C19.2151 1.91552 19.5112 2.1594 19.7489 2.45536C19.8134 2.52342 19.8907 2.57811 19.9763 2.61631C20.0619 2.65451 20.1543 2.67548 20.248 2.678C20.3417 2.68053 20.435 2.66457 20.5226 2.63103C20.6101 2.5975 20.6902 2.54705 20.7583 2.48256C20.8263 2.41807 20.881 2.34081 20.9192 2.25518C20.9574 2.16956 20.9784 2.07725 20.9809 1.98352C20.9835 1.8898 20.9675 1.79649 20.934 1.70893C20.9004 1.62137 20.85 1.54128 20.7855 1.47321C20.4174 1.03281 19.9613 0.674237 19.4464 0.420528C18.9315 0.166819 18.3693 0.0235778 17.7958 0C15.0769 0 12.7299 3.48511 11.3638 8.86514C6.02335 7.36006 1.83455 7.64884 0.477173 10C-1.68211 13.7381 3.8205 19.8744 10.2718 24.3383C10.4163 26.1637 10.6753 27.9783 11.0475 29.7712C6.18397 31.1747 2.66097 30.9245 1.71322 29.2836C1.54833 28.9433 1.4553 28.5728 1.43994 28.195C1.42458 27.8172 1.48721 27.4403 1.62394 27.0877C1.6505 26.9978 1.65909 26.9035 1.64921 26.8102C1.63932 26.7169 1.61117 26.6265 1.56634 26.5441C1.52152 26.4617 1.46091 26.389 1.38796 26.33C1.31502 26.271 1.23118 26.227 1.14122 26.2005C1.05127 26.1739 0.95696 26.1653 0.863687 26.1752C0.770413 26.1851 0.679999 26.2132 0.597607 26.258C0.431208 26.3486 0.307587 26.5015 0.253937 26.6832C0.0575951 27.221 -0.0239768 27.794 0.0144706 28.3652C0.0529179 28.9365 0.210533 29.4933 0.477173 30C1.28217 31.3944 3.0825 32.064 5.52949 32.064C7.50697 32.0161 9.46905 31.7027 11.3631 31.1322C12.7291 36.5138 15.0765 40 17.7958 40C22.1145 40 24.6774 32.1677 25.3198 24.3413C26.8168 23.3104 28.2482 22.1873 29.6055 20.9784C33.2215 24.4864 34.8009 27.6843 33.8784 29.2836C33.6665 29.5969 33.3924 29.8632 33.0732 30.066C32.754 30.2688 32.3965 30.4037 32.0229 30.4625C31.9317 30.4843 31.8456 30.5238 31.7697 30.5789C31.6937 30.634 31.6294 30.7034 31.5803 30.7834C31.5312 30.8633 31.4983 30.9521 31.4835 31.0447C31.4688 31.1374 31.4724 31.232 31.4942 31.3232C31.5382 31.5075 31.6536 31.6667 31.8151 31.7659C31.895 31.815 31.9838 31.8479 32.0765 31.8626C32.1691 31.8774 32.2637 31.8738 32.355 31.852C32.9174 31.7491 33.4526 31.5316 33.9273 31.213C34.4021 30.8944 34.8062 30.4815 35.1145 30C36.472 27.6471 34.6275 23.8732 30.6529 20C34.6275 16.1269 36.472 12.3531 35.1145 10.0007ZM10.0956 20C10.0956 20.8492 10.1173 21.6823 10.155 22.5009C3.96716 17.9951 0.371708 13.0388 1.71462 10.7143C2.66104 9.07471 6.184 8.82442 11.0477 10.2282C10.3957 13.4442 10.0767 16.7187 10.0956 20ZM17.7958 38.5714C15.9457 38.5714 13.9642 35.6045 12.7346 30.717C15.8354 29.6753 18.8213 28.3187 21.6456 26.6685C22.3829 26.2425 23.0968 25.807 23.7871 25.3622C22.9772 32.979 20.4817 38.5714 17.7958 38.5714ZM20.9313 25.4311C18.2303 27.0118 15.3795 28.3214 12.4206 29.3408C11.8064 26.2656 11.5061 23.1359 11.5242 20C11.506 16.8639 11.8064 13.7341 12.4207 10.6587C15.3796 11.6782 18.2304 12.988 20.9313 14.5689C23.6471 16.1178 26.1992 17.9374 28.5486 20C26.1992 22.0626 23.6471 23.8823 20.9313 25.4311ZM29.6055 19.0215C27.1535 16.858 24.4862 14.9513 21.6456 13.3315C20.9082 12.9063 20.1744 12.5061 19.4442 12.1309C26.4413 9.0339 32.5457 8.40071 33.877 10.7143C34.8004 12.3149 33.2213 15.5133 29.6055 19.0215Z" fill="#00FFD1"/>
<path d="M20.3135 5.63675C20.3135 6.06057 20.4392 6.47487 20.6746 6.82726C20.9101 7.17965 21.2447 7.45431 21.6363 7.6165C22.0279 7.77868 22.4587 7.82112 22.8744 7.73844C23.2901 7.65575 23.6719 7.45167 23.9716 7.15198C24.2712 6.8523 24.4753 6.47048 24.558 6.0548C24.6407 5.63913 24.5983 5.20827 24.4361 4.81672C24.2739 4.42516 23.9992 4.09049 23.6468 3.85503C23.2944 3.61957 22.8802 3.4939 22.4563 3.4939C21.8882 3.49452 21.3435 3.72048 20.9418 4.12221C20.5401 4.52394 20.3141 5.06862 20.3135 5.63675ZM22.4563 4.92247C22.5976 4.92247 22.7357 4.96436 22.8532 5.04285C22.9706 5.12133 23.0622 5.23289 23.1162 5.36341C23.1703 5.49393 23.1845 5.63755 23.1569 5.7761C23.1293 5.91466 23.0613 6.04194 22.9614 6.14183C22.8615 6.24172 22.7342 6.30975 22.5957 6.33731C22.4571 6.36488 22.3135 6.35073 22.183 6.29667C22.0525 6.2426 21.9409 6.15105 21.8624 6.03359C21.7839 5.91613 21.742 5.77803 21.742 5.63675C21.7422 5.44735 21.8175 5.26574 21.9514 5.13182C22.0853 4.99789 22.2669 4.92259 22.4563 4.92247Z" fill="#00FFD1"/>
<path d="M3.02665 25.2882C3.45046 25.2882 3.86476 25.1625 4.21715 24.927C4.56954 24.6916 4.8442 24.3569 5.00639 23.9653C5.16858 23.5738 5.21101 23.1429 5.12833 22.7273C5.04565 22.3116 4.84156 21.9298 4.54188 21.6301C4.24219 21.3304 3.86037 21.1263 3.4447 21.0436C3.02902 20.9609 2.59817 21.0034 2.20661 21.1656C1.81505 21.3277 1.48039 21.6024 1.24493 21.9548C1.00947 22.3072 0.883789 22.7215 0.883789 23.1453C0.884409 23.7134 1.11037 24.2581 1.5121 24.6598C1.91383 25.0616 2.45852 25.2875 3.02665 25.2882ZM3.02665 22.431C3.16792 22.431 3.30602 22.4729 3.42348 22.5514C3.54095 22.6299 3.6325 22.7414 3.68656 22.872C3.74062 23.0025 3.75477 23.1461 3.72721 23.2847C3.69965 23.4232 3.63162 23.5505 3.53172 23.6504C3.43183 23.7503 3.30455 23.8183 3.166 23.8459C3.02744 23.8734 2.88382 23.8593 2.7533 23.8052C2.62278 23.7512 2.51123 23.6596 2.43274 23.5421C2.35425 23.4247 2.31236 23.2866 2.31236 23.1453C2.31249 22.9559 2.38778 22.7743 2.52171 22.6404C2.65564 22.5064 2.83724 22.4311 3.02665 22.431Z" fill="#00FFD1"/>
<path d="M27.9036 29.075C27.4798 29.075 27.0655 29.2006 26.7131 29.4361C26.3607 29.6715 26.086 30.0062 25.9239 30.3978C25.7617 30.7893 25.7192 31.2202 25.8019 31.6359C25.8846 32.0515 26.0887 32.4334 26.3884 32.733C26.6881 33.0327 27.0699 33.2368 27.4856 33.3195C27.9012 33.4022 28.3321 33.3597 28.7236 33.1976C29.1152 33.0354 29.4499 32.7607 29.6853 32.4083C29.9208 32.0559 30.0465 31.6416 30.0465 31.2178C30.0458 30.6497 29.8199 30.105 29.4181 29.7033C29.0164 29.3015 28.4717 29.0756 27.9036 29.075ZM27.9036 31.9321C27.7623 31.9321 27.6242 31.8902 27.5068 31.8117C27.3893 31.7332 27.2977 31.6217 27.2437 31.4912C27.1896 31.3606 27.1755 31.217 27.203 31.0785C27.2306 30.9399 27.2986 30.8126 27.3985 30.7127C27.4984 30.6128 27.6257 30.5448 27.7643 30.5173C27.9028 30.4897 28.0464 30.5038 28.1769 30.5579C28.3075 30.612 28.419 30.7035 28.4975 30.821C28.576 30.9384 28.6179 31.0765 28.6179 31.2178C28.6178 31.4072 28.5425 31.5888 28.4085 31.7227C28.2746 31.8567 28.093 31.932 27.9036 31.9321Z" fill="#00FFD1"/>
</svg>
