<svg width="41" height="40" viewBox="0 0 41 40" fill="none" xmlns="http://www.w3.org/2000/svg">
<path d="M40.0939 9.67871L30.2278 0.21419C30.086 0.0809377 29.9001 0.00466891 29.7057 0H8.67934C8.47223 0 8.27361 0.0822733 8.12716 0.228721C7.98071 0.375168 7.89844 0.573793 7.89844 0.780901V15.3994C7.89844 15.6065 7.98071 15.8051 8.12716 15.9516C8.27361 16.098 8.47223 16.1803 8.67934 16.1803C8.88645 16.1803 9.08507 16.098 9.23152 15.9516C9.37797 15.8051 9.46024 15.6065 9.46024 15.3994V1.56627H28.9025V7.0772C28.9036 8.1238 29.3202 9.12713 30.0607 9.86677C30.8012 10.6064 31.805 11.0219 32.8516 11.0219H38.7731V35.5645C38.7731 36.3211 38.4728 37.0469 37.9382 37.5823C37.4036 38.1178 36.6783 38.4192 35.9216 38.4203H29.7057C29.4986 38.4203 29.2999 38.5026 29.1535 38.6491C29.007 38.7955 28.9248 38.9941 28.9248 39.2012C28.9248 39.4084 29.007 39.607 29.1535 39.7534C29.2999 39.8999 29.4986 39.9822 29.7057 39.9822H35.9529C37.1234 39.9798 38.2452 39.5135 39.0725 38.6854C39.8997 37.8573 40.3649 36.735 40.3661 35.5645V10.241C40.3613 10.1337 40.3347 10.0285 40.2879 9.93179C40.2411 9.83511 40.1751 9.749 40.0939 9.67871ZM30.4643 7.0772V2.6149L37.6039 9.46452H32.8516C32.2184 9.46452 31.6112 9.213 31.1635 8.76529C30.7158 8.31758 30.4643 7.71036 30.4643 7.0772Z" fill="#00FFD1"/>
<path d="M20.7544 26.6533C21.2586 26.6542 21.7516 26.5055 22.1712 26.2261C22.5908 25.9466 22.9181 25.549 23.1116 25.0835C23.3052 24.618 23.3563 24.1055 23.2585 23.611C23.1607 23.1164 22.9183 22.662 22.5622 22.3052C22.206 21.9485 21.752 21.7053 21.2576 21.6067C20.7633 21.508 20.2507 21.5582 19.7849 21.7509C19.319 21.9436 18.9208 22.2702 18.6407 22.6893C18.3605 23.1084 18.2109 23.6012 18.2109 24.1053C18.2109 24.7803 18.4788 25.4277 18.9556 25.9055C19.4325 26.3832 20.0795 26.6521 20.7544 26.6533ZM20.7544 23.1236C20.9499 23.1228 21.1411 23.18 21.304 23.288C21.4669 23.396 21.5939 23.55 21.6691 23.7303C21.7443 23.9107 21.7642 24.1094 21.7263 24.3011C21.6884 24.4928 21.5944 24.6689 21.4562 24.8071C21.318 24.9453 21.1419 25.0393 20.9502 25.0772C20.7585 25.1151 20.5598 25.0952 20.3795 25.02C20.1991 24.9448 20.0451 24.8178 19.9371 24.6549C19.8291 24.492 19.7719 24.3008 19.7727 24.1053C19.7727 23.845 19.8762 23.5953 20.0603 23.4112C20.2444 23.2271 20.4941 23.1236 20.7544 23.1236Z" fill="#00FFD1"/>
<path d="M24.141 17.6885H3.9759C2.92179 17.6897 1.91119 18.1089 1.16582 18.8543C0.420449 19.5997 0.00118108 20.6103 0 21.6644V36.024C0.00118108 37.0782 0.420449 38.0888 1.16582 38.8341C1.91119 39.5795 2.92179 39.9988 3.9759 39.9999H24.141C25.1951 39.9988 26.2057 39.5795 26.9511 38.8341C27.6965 38.0888 28.1157 37.0782 28.1169 36.024V21.6644C28.1157 20.6103 27.6965 19.5997 26.9511 18.8543C26.2057 18.1089 25.1951 17.6897 24.141 17.6885ZM3.9759 19.2503H24.141C24.7813 19.2503 25.3953 19.5046 25.848 19.9574C26.3008 20.4101 26.5551 21.0241 26.5551 21.6644V34.6407L20.6336 28.4962C20.5608 28.4204 20.4735 28.3601 20.3769 28.3187C20.2804 28.2773 20.1765 28.2557 20.0714 28.2552C19.9673 28.2552 19.8643 28.2762 19.7685 28.3168C19.6727 28.3574 19.586 28.4169 19.5136 28.4917L15.4574 32.6282L9.50022 25.1227C9.42749 25.0302 9.3346 24.9557 9.22865 24.9046C9.1227 24.8536 9.00649 24.8274 8.88889 24.8281C8.77187 24.8282 8.65631 24.8542 8.55059 24.9044C8.44486 24.9546 8.3516 25.0276 8.27755 25.1182L1.58411 33.5385V21.6644C1.58525 21.0283 1.8369 20.4183 2.28457 19.9665C2.73224 19.5146 3.33988 19.2573 3.9759 19.2503ZM1.5618 36.024L8.88889 26.863L18.0723 38.4381H3.9759C3.33601 38.437 2.72266 38.1822 2.27018 37.7298C1.8177 37.2773 1.56298 36.6639 1.5618 36.024ZM24.141 38.4381H19.9955L16.4257 33.8598L20.058 30.1561C20.058 30.1561 26.3588 36.6488 26.4614 36.6845C26.3178 37.1893 26.0137 37.6335 25.595 37.95C25.1763 38.2664 24.6658 38.4378 24.141 38.4381Z" fill="#00FFD1"/>
<path d="M14.0602 9.54032H24.7965C25.0036 9.54032 25.2022 9.45804 25.3487 9.3116C25.4951 9.16515 25.5774 8.96652 25.5774 8.75942C25.5774 8.55231 25.4951 8.35368 25.3487 8.20724C25.2022 8.06079 25.0036 7.97852 24.7965 7.97852H14.0602C13.8531 7.97852 13.6545 8.06079 13.508 8.20724C13.3616 8.35368 13.2793 8.55231 13.2793 8.75942C13.2793 8.96652 13.3616 9.16515 13.508 9.3116C13.6545 9.45804 13.8531 9.54032 14.0602 9.54032Z" fill="#00FFD1"/>
<path d="M14.0602 13.3689H19.4953C19.7024 13.3689 19.901 13.2867 20.0475 13.1402C20.1939 12.9938 20.2762 12.7951 20.2762 12.588C20.2762 12.3809 20.1939 12.1823 20.0475 12.0358C19.901 11.8894 19.7024 11.8071 19.4953 11.8071H14.0602C13.8531 11.8071 13.6545 11.8894 13.508 12.0358C13.3616 12.1823 13.2793 12.3809 13.2793 12.588C13.2793 12.7951 13.3616 12.9938 13.508 13.1402C13.6545 13.2867 13.8531 13.3689 14.0602 13.3689Z" fill="#00FFD1"/>
</svg>
