<svg width="42" height="40" viewBox="0 0 42 40" fill="none" xmlns="http://www.w3.org/2000/svg">
<path d="M35.3066 25.7063V22.7501C35.9237 23.0415 36.5189 23.3773 37.0874 23.755C37.1681 23.8103 37.2591 23.8491 37.3549 23.8692C37.4507 23.8892 37.5496 23.89 37.6458 23.8717C37.7419 23.8533 37.8335 23.8161 37.9152 23.7621C37.9969 23.7082 38.0672 23.6386 38.1218 23.5574C38.1765 23.4762 38.2146 23.3849 38.2338 23.2889C38.2531 23.1929 38.2531 23.0941 38.234 22.9981C38.2148 22.902 38.1769 22.8108 38.1223 22.7295C38.0677 22.6482 37.9975 22.5786 37.9159 22.5246C37.0896 21.9807 36.2163 21.5117 35.3066 21.1232V8.63524C35.3065 8.50461 35.272 8.37632 35.2065 8.26329C35.141 8.15026 35.0469 8.05649 34.9336 7.99144L21.1327 0.0938066C21.0196 0.0322497 20.8929 0 20.7641 0C20.6353 0 20.5086 0.0322497 20.3954 0.0938066L6.5945 7.99148C6.47541 8.05997 6.37759 8.16009 6.31189 8.28075C6.24619 8.40141 6.21516 8.5379 6.22225 8.6751L6.8755 20.875L6.31424 21.0907C2.24208 22.8461 0 25.2946 0 27.985C0 32.8467 7.95378 36.0263 15.6038 37.0123L13.9458 38.7527C13.8143 38.8957 13.7442 39.0847 13.7507 39.2789C13.7571 39.4731 13.8395 39.657 13.9801 39.7911C14.1207 39.9252 14.3084 39.9987 14.5027 39.9959C14.697 39.993 14.8824 39.914 15.019 39.7759L17.7876 36.8698C17.919 36.7318 17.9924 36.5486 17.9924 36.3581C17.9924 36.1676 17.919 35.9844 17.7876 35.8465L15.019 32.9407C14.8823 32.8027 14.697 32.7238 14.5027 32.721C14.3085 32.7182 14.121 32.7918 13.9804 32.9258C13.8398 33.0598 13.7574 33.2437 13.751 33.4378C13.7445 33.6319 13.8144 33.8209 13.9458 33.964L15.3929 35.4828C3.66771 33.9268 -4.41504 27.6423 6.95879 22.4312L7.08985 24.8782C7.09982 25.0007 7.13853 25.1191 7.20284 25.2237C7.26715 25.3284 7.35524 25.4165 7.45996 25.4807C7.61423 25.5381 11.1565 27.7198 11.2192 27.5382C11.3808 27.5352 11.5371 27.4797 11.6645 27.3801C11.7918 27.2805 11.8834 27.1423 11.9253 26.9861C11.9672 26.83 11.9573 26.6645 11.8969 26.5145C11.8366 26.3645 11.7291 26.2382 11.5907 26.1546L9.35917 24.8655L20.7546 18.8022L32.9564 25.6535L20.7967 31.4691L14.1565 27.6374C13.9864 27.5425 13.7857 27.5184 13.5979 27.5702C13.4101 27.6221 13.2502 27.7457 13.1529 27.9144C13.0555 28.0832 13.0284 28.2834 13.0774 28.472C13.1265 28.6605 13.2477 28.8222 13.415 28.9221L20.3933 32.949C20.4976 33.009 20.6151 33.0429 20.7354 33.0475C20.8558 33.0522 20.9754 33.0276 21.0842 32.9757C21.104 32.9609 34.8924 26.3822 34.9047 26.3607C35.0241 26.2975 35.1244 26.2035 35.1951 26.0884C35.2658 25.9733 35.3043 25.8413 35.3066 25.7063ZM33.8234 24.4393L21.5056 17.523V6.49961C21.5056 6.30294 21.4275 6.11432 21.2884 5.97525C21.1494 5.83618 20.9607 5.75805 20.7641 5.75805C20.5674 5.75805 20.3788 5.83618 20.2397 5.97525C20.1006 6.11432 20.0225 6.30294 20.0225 6.49961V17.5117L8.50929 23.6376L7.72788 9.05208L20.0225 2.01653V3.53331C20.0225 3.72999 20.1006 3.91861 20.2397 4.05768C20.3788 4.19675 20.5674 4.27488 20.7641 4.27488C20.9607 4.27488 21.1494 4.19675 21.2884 4.05768C21.4275 3.91861 21.5056 3.72999 21.5056 3.53331V2.01653L33.8234 9.06546V24.4393Z" fill="#00FFD1"/>
<path d="M39.2565 24.5416C39.1796 24.6013 39.1151 24.6756 39.0669 24.7602C39.0186 24.8448 38.9875 24.9381 38.9753 25.0348C38.9632 25.1314 38.9701 25.2295 38.9959 25.3235C39.0216 25.4174 39.0656 25.5054 39.1254 25.5823C42.7204 30.5513 34.7916 34.1963 26.1481 35.4734L27.5825 33.9678C27.7137 33.8246 27.7836 33.6357 27.7771 33.4417C27.7705 33.2476 27.6881 33.0638 27.5476 32.9298C27.4071 32.7959 27.2196 32.7223 27.0254 32.7251C26.8312 32.7278 26.6459 32.8066 26.5092 32.9445L23.7399 35.8503C23.6085 35.9882 23.5352 36.1715 23.5352 36.362C23.5352 36.5525 23.6085 36.7357 23.7399 36.8736L26.5092 39.7798C26.6459 39.918 26.8313 39.997 27.0256 39.9998C27.2199 40.0027 27.4076 39.9291 27.5482 39.795C27.6889 39.6609 27.7713 39.477 27.7777 39.2827C27.7841 39.0885 27.714 38.8995 27.5825 38.7565L25.9147 37.0059C33.569 36.0252 41.5282 32.8489 41.5282 27.982C41.6318 27.1697 40.5984 23.6451 39.2565 24.5416Z" fill="#00FFD1"/>
</svg>
