<svg width="60" height="60" viewBox="0 0 60 60" fill="none" xmlns="http://www.w3.org/2000/svg">
<path opacity="0.1" d="M40.475 5.00098H19.525C10.425 5.00098 5 10.426 5 19.526V40.451C5 49.5759 10.425 55.001 19.525 55.001H40.45C49.55 55.001 54.9751 49.5759 54.9751 40.476V19.526C55 10.426 49.5751 5.00098 40.475 5.00098Z" fill="#A020F0"/>
<path d="M54.5749 8.87555C51.9499 15.4005 45.9998 23.9255 40.2998 29.5005C39.4748 24.3506 35.3749 20.3255 30.1748 19.6005C35.7748 13.9005 44.3498 7.85055 50.8999 5.20055C52.0498 4.75055 53.2249 5.10056 53.9248 5.82555C54.6998 6.57555 55.0498 7.72556 54.5749 8.87555Z" fill="#A020F0"/>
<path opacity="0.25" d="M40.3002 29.4752C39.3001 30.4502 38.3002 31.3502 37.3501 32.1002L33.4252 35.2502C32.9251 35.6001 32.4252 35.9001 31.8751 36.1502C31.8751 35.7752 31.8252 35.4002 31.8001 35.0001C31.5751 33.3501 30.8251 31.7751 29.4751 30.4251C28.1002 29.0751 26.4502 28.3001 24.7752 28.0751C24.3751 28.0251 23.9502 28.0251 23.5752 28.0251C23.8002 27.4001 24.1252 26.8251 24.5502 26.3501L27.6751 22.4252C28.4251 21.4751 29.2752 20.5251 30.2002 19.5752C35.3752 20.3001 39.5002 24.3501 40.3002 29.4752Z" fill="#A020F0"/>
<path d="M31.8745 36.1753C31.8745 38.3753 31.0245 40.4753 29.4495 42.0503C28.2244 43.2752 26.5995 44.1253 24.5995 44.3753L19.6995 44.9252C17.0245 45.2252 14.7245 42.9253 15.0244 40.2253L15.5745 35.3252C16.0495 30.9503 19.6995 28.1503 23.5744 28.0753C23.9494 28.0502 24.3745 28.0753 24.7744 28.1252C26.4745 28.3502 28.0995 29.1253 29.4745 30.4753C30.7995 31.8002 31.5745 33.4003 31.7995 35.0503C31.8244 35.4253 31.8745 35.8003 31.8745 36.1753Z" fill="#A020F0"/>
</svg>
