<svg width="60" height="60" viewBox="0 0 60 60" fill="none" xmlns="http://www.w3.org/2000/svg">
<path d="M48.7494 18.7502L45.0244 22.4751L37.5244 14.9752L41.2494 11.2502C42.2994 10.2002 43.6494 9.7002 44.9994 9.7002C46.3494 9.7002 47.6994 10.2002 48.7494 11.2502C50.8245 13.3252 50.8245 16.6752 48.7494 18.7502Z" fill="#A020F0"/>
<path opacity="0.25" d="M45.0255 22.4745L16.2506 51.2496C14.1756 53.3246 10.8256 53.3246 8.75058 51.2496C6.67559 49.1745 6.67559 45.8246 8.75058 43.7497L37.5255 14.9746L45.0255 22.4745Z" fill="#A020F0"/>
<path opacity="0.55" d="M24.8752 8.75029L25.9003 5.27528C26.0002 4.95029 25.9003 4.60028 25.6753 4.35029C25.4503 4.10029 25.0503 4.00028 24.7252 4.10029L21.2503 5.12528L17.7753 4.10029C17.4502 4.00028 17.1003 4.10029 16.8502 4.32529C16.6003 4.57529 16.5253 4.92529 16.6252 5.25029L17.6253 8.75029L16.6003 12.2253C16.5003 12.5503 16.6003 12.9003 16.8253 13.1503C17.0752 13.4003 17.4253 13.4753 17.7502 13.3753L21.2503 12.3753L24.7252 13.4003C24.8253 13.4253 24.9003 13.4503 25.0003 13.4503C25.2502 13.4503 25.4752 13.3503 25.6753 13.1753C25.9252 12.9253 26.0002 12.5753 25.9003 12.2503L24.8752 8.75029Z" fill="#A020F0"/>
<path d="M14.8753 23.7503L15.9003 20.2753C16.0002 19.9502 15.9003 19.6003 15.6753 19.3502C15.4253 19.1003 15.0753 19.0253 14.7503 19.1252L11.2503 20.1253L7.77528 19.1003C7.45028 19.0003 7.10028 19.1003 6.85028 19.3253C6.60029 19.5752 6.52529 19.9253 6.62528 20.2502L7.62528 23.7503L6.60029 27.2252C6.50028 27.5503 6.60029 27.9002 6.82529 28.1503C7.07528 28.4003 7.42529 28.4753 7.75028 28.3753L11.2253 27.3503L14.7003 28.3753C14.7753 28.4003 14.8753 28.4003 14.9753 28.4003C15.2253 28.4003 15.4503 28.3003 15.6503 28.1252C15.9003 27.8753 15.9753 27.5252 15.8753 27.2003L14.8753 23.7503Z" fill="#A020F0"/>
<path opacity="0.55" d="M52.3753 36.2499L53.4002 32.7749C53.5003 32.4498 53.4002 32.0999 53.1752 31.8498C52.9253 31.5999 52.5752 31.5249 52.2503 31.6248L48.7753 32.6499L45.3002 31.6248C44.9753 31.5249 44.6252 31.6248 44.3753 31.8498C44.1253 32.0999 44.0503 32.4498 44.1503 32.7749L45.1753 36.2499L44.1503 39.7248C44.0503 40.0499 44.1503 40.3998 44.3753 40.6499C44.6252 40.8999 44.9753 40.9749 45.3002 40.8749L48.7753 39.8499L52.2503 40.8749C52.3253 40.8999 52.4252 40.8999 52.5253 40.8999C52.7753 40.8999 53.0003 40.7999 53.2003 40.6248C53.4503 40.3749 53.5253 40.0248 53.4253 39.6999L52.3753 36.2499Z" fill="#A020F0"/>
</svg>
