<svg width="60" height="60" viewBox="0 0 60 60" fill="none" xmlns="http://www.w3.org/2000/svg">
<path opacity="0.4" d="M43.8255 19.425C43.6506 19.4 43.4756 19.4 43.3005 19.425C39.4256 19.3001 36.3506 16.125 36.3506 12.225C36.3506 8.25 39.5756 5 43.5756 5C47.5506 5 50.8005 8.225 50.8005 12.225C50.7756 16.125 47.7006 19.3001 43.8255 19.425Z" fill="#A020F0"/>
<path opacity="0.4" d="M51.9749 36.7501C49.175 38.6251 45.25 39.325 41.6249 38.8501C42.575 36.8 43.075 34.5251 43.1 32.1251C43.1 29.6251 42.55 27.2501 41.5 25.175C45.2001 24.6751 49.125 25.375 51.9501 27.25C55.9 29.8501 55.9 34.1251 51.9749 36.7501Z" fill="#A020F0"/>
<path opacity="0.4" d="M16.1 19.425C16.275 19.4 16.45 19.4 16.625 19.425C20.5 19.3001 23.5749 16.125 23.5749 12.225C23.5749 8.25 20.3499 5 16.35 5C12.375 5 9.125 8.225 9.125 12.225C9.14999 16.125 12.225 19.3001 16.1 19.425Z" fill="#A020F0"/>
<path opacity="0.4" d="M16.3749 32.1246C16.3749 34.5495 16.8999 36.8496 17.8498 38.9245C14.3248 39.2995 10.6498 38.5495 7.94981 36.7746C3.9998 34.1496 3.9998 29.8746 7.94981 27.2496C10.6248 25.4496 14.3998 24.7245 17.9499 25.1245C16.9248 27.2245 16.3749 29.5996 16.3749 32.1246Z" fill="#A020F0"/>
<path d="M30.3 39.675C30.1001 39.65 29.8751 39.65 29.6501 39.675C25.05 39.525 21.375 35.7499 21.375 31.0999C21.375 26.35 25.2 22.5 29.9749 22.5C34.725 22.5 38.5751 26.35 38.5751 31.0999C38.5751 35.7499 34.925 39.525 30.3 39.675Z" fill="#A020F0"/>
<path d="M22.175 44.8495C18.4 47.3746 18.4 51.5245 22.175 54.0246C26.4751 56.8996 33.5251 56.8996 37.825 54.0246C41.6 51.4996 41.6 47.3496 37.825 44.8495C33.55 41.9746 26.5 41.9746 22.175 44.8495Z" fill="#A020F0"/>
</svg>
