<svg width="60" height="60" viewBox="0 0 60 60" fill="none" xmlns="http://www.w3.org/2000/svg">
<path opacity="0.4" d="M35 40.0004C35 44.4254 33.0751 48.4253 30 51.1503C27.35 53.5503 23.85 55.0004 20 55.0004C11.725 55.0004 5 48.2753 5 40.0004C5 33.1004 9.7 27.2504 16.0501 25.5254C17.7751 29.8754 21.475 33.2253 26.0499 34.4753C27.3001 34.8254 28.625 35.0003 30 35.0003C31.375 35.0003 32.7 34.8254 33.95 34.4753C34.625 36.1754 35 38.0504 35 40.0004Z" fill="#A020F0"/>
<path d="M45 20C45 21.95 44.625 23.825 43.95 25.5249C42.225 29.8749 38.525 33.225 33.95 34.475C32.7 34.8249 31.375 35 30 35C28.625 35 27.3 34.8249 26.05 34.475C21.475 33.225 17.775 29.8749 16.05 25.5249C15.375 23.825 15 21.95 15 20C15 11.725 21.725 5 30 5C38.275 5 45 11.725 45 20Z" fill="#A020F0"/>
<path opacity="0.25" d="M55 40.0004C55 48.2753 48.275 55.0004 40.0001 55.0004C36.15 55.0004 32.6501 53.5503 30 51.1503C33.075 48.4253 34.9999 44.4254 34.9999 40.0004C34.9999 38.0504 34.625 36.1754 33.95 34.4753C38.525 33.2253 42.225 29.8754 43.95 25.5254C50.2999 27.2504 55 33.1004 55 40.0004Z" fill="#A020F0"/>
</svg>
